<svg xmlns="http://www.w3.org/2000/svg" viewBox="0 0 74.82 64.97"><path d="M8.14,41.44h0a20,20,0,0,0,9.18,2.65A19.84,19.84,0,0,1,25.11,36l1-.56a23,23,0,0,1,11.32-3,22.86,22.86,0,0,1-11.32-3l-1-.55a20,20,0,0,1-7.79-8,19.78,19.78,0,0,0-9.18,2.65h0a19.93,19.93,0,0,0-8.14,9A20,20,0,0,0,8.14,41.44Z" fill="#23221f"/><path d="M30.53,62.31h0a19.85,19.85,0,0,0,6.88-6.62,20,20,0,0,1-3.08-10.77V43.79a22.94,22.94,0,0,1,3.07-11.3,23,23,0,0,1-8.25,8.31l-1,.57a19.94,19.94,0,0,1-10.87,2.72A19.87,19.87,0,0,0,15,53.36h0a19.94,19.94,0,0,0,3.68,11.53A20,20,0,0,0,30.53,62.31Z" fill="#23221f"/><path d="M59.8,53.36a20,20,0,0,0-2.29-9.27,19.9,19.9,0,0,1-10.87-2.72l-1-.57a23,23,0,0,1-8.26-8.31,22.83,22.83,0,0,1,3.07,11.3v1.13a19.88,19.88,0,0,1-3.08,10.77,20,20,0,0,0,6.89,6.62h0a20,20,0,0,0,11.82,2.58A19.94,19.94,0,0,0,59.8,53.36Z" fill="#23221f"/><path d="M66.68,23.54h0a19.78,19.78,0,0,0-9.17-2.65,20,20,0,0,1-7.79,8.05l-1,.55a22.9,22.9,0,0,1-11.33,3,23,23,0,0,1,11.33,3l1,.56a19.9,19.9,0,0,1,7.79,8.05,20,20,0,0,0,9.17-2.65h0a19.93,19.93,0,0,0,8.14-8.95A19.87,19.87,0,0,0,66.68,23.54Z" fill="#23221f"/><path d="M15,11.61a19.94,19.94,0,0,0,2.29,9.28,19.86,19.86,0,0,1,10.87,2.72l1,.57a22.82,22.82,0,0,1,8.25,8.31h0a23,23,0,0,1-3.07-11.3V20.06A20,20,0,0,1,37.41,9.29a19.76,19.76,0,0,0-6.88-6.62h0A19.83,19.83,0,0,0,18.71.09,19.91,19.91,0,0,0,15,11.61Z" fill="#23221f"/><path d="M44.3,2.67h0a19.87,19.87,0,0,0-6.89,6.62,19.88,19.88,0,0,1,3.08,10.77v1.13a22.89,22.89,0,0,1-3.07,11.3h0a22.85,22.85,0,0,1,8.26-8.31l1-.57a19.81,19.81,0,0,1,10.87-2.72,20.07,20.07,0,0,0,2.29-9.28h0A19.91,19.91,0,0,0,56.12.09,19.82,19.82,0,0,0,44.3,2.67Z" fill="#23221f"/></svg>