<svg xmlns="http://www.w3.org/2000/svg" viewBox="0 0 351.06 74.16"><path d="M328.35,51.71a12.84,12.84,0,0,1,.72,3.23c.05.52.06,1.05.07,1.68a14.93,14.93,0,0,1-.12,1.69,16.72,16.72,0,0,1-2.28,6.47,16.29,16.29,0,0,1-4.85,5,17.27,17.27,0,0,1-3.16,1.58,14.54,14.54,0,0,1-3.41.79,15.11,15.11,0,0,1-6.84-.84,18,18,0,0,1-5.83-3.44A22.74,22.74,0,0,1,295.94,58l33-16.13.23-.11-.05-.09h0l-.11-.23-.15-.26,0,0h0a21.65,21.65,0,0,0-4.19-5.61,18.92,18.92,0,0,0-6.14-4,17.35,17.35,0,0,0-14.33.6,22.39,22.39,0,0,0-10.14,10.55A23.81,23.81,0,0,0,292,49.9a21.86,21.86,0,0,0-.18,3.85,24.92,24.92,0,0,0,.52,3.85,21.83,21.83,0,0,0,1.22,3.7c.12.31.26.6.4.89s.29.6.44.88c.34.63.73,1.22,1,1.67a20.09,20.09,0,0,0,5.47,5.52,20.45,20.45,0,0,0,7.08,3,17.61,17.61,0,0,0,3.73.39,19.59,19.59,0,0,0,3.8-.38,19.22,19.22,0,0,0,6.82-2.82,20.08,20.08,0,0,0,5.32-5,24.79,24.79,0,0,0,4.62-13.77v-.26h-4Zm-3.13-8.83-29.5,14.41c-.05-.17-.12-.33-.16-.5a23.35,23.35,0,0,1,.23-13.49,19.37,19.37,0,0,1,1.37-3.21,17,17,0,0,1,1.95-2.92,17.3,17.3,0,0,1,2.49-2.5,17.7,17.7,0,0,1,3-1.92,15,15,0,0,1,6.75-1.61h0a14.11,14.11,0,0,1,13.87,11.74Z" fill="#23221f"/><path d="M235.37,70.32V30.88l-9.81,4,1.92-.26c2.38-.31,3.6-.22,4.23.33a2.53,2.53,0,0,1,.6,2V70.32a2.22,2.22,0,0,1-2,1.85l-2.9.53,0,.5h12.79l0-.5-2.9-.53A2.23,2.23,0,0,1,235.37,70.32Z" fill="#23221f"/><path d="M285.52,70.33l0-16.88,0-4.88V46.11a18.77,18.77,0,0,0-.21-2.62,19.73,19.73,0,0,0-1.44-5.06,14,14,0,0,0-3-4.43,11.67,11.67,0,0,0-4.62-2.75,13.45,13.45,0,0,0-5.17-.53,15.21,15.21,0,0,0-5,1.21,21,21,0,0,0-4.31,2.53,30.41,30.41,0,0,0-3.7,3.26,40.22,40.22,0,0,0-3.21,3.72,56.58,56.58,0,0,0-3.53,5.2V30.89l-10,3.76,2.17-.29c2.17-.29,3.43-.16,4.09.42a2.75,2.75,0,0,1,.68,2.2V70.7a2.41,2.41,0,0,1-1.94,1.47l-2.9.53,0,.5h12.79l.05-.5-2.91-.53a2.21,2.21,0,0,1-2-1.85v-.25h-.07V47.79a47.85,47.85,0,0,1,4-5.95,31.92,31.92,0,0,1,6.93-6.65,17.76,17.76,0,0,1,4.22-2.12,12.66,12.66,0,0,1,4.56-.69,11.58,11.58,0,0,1,4.4.89A9.82,9.82,0,0,1,279,35.81a12.43,12.43,0,0,1,2.19,3.75,20.18,20.18,0,0,1,1,4.36c.11.88.16,1.59.18,2.24l.05,7.28V70.33a2.23,2.23,0,0,1-2,1.84l-2.9.53.05.5h12.79l0-.5-2.9-.53A2.25,2.25,0,0,1,285.52,70.33Z" fill="#23221f"/><path d="M77.61,70.35V52.12l0-1a27.82,27.82,0,0,0-.46-3.76,29.17,29.17,0,0,0-1-3.64,24.61,24.61,0,0,0-3.51-6.64A25.26,25.26,0,0,0,70.2,34.3l-.67-.64-.69-.6c-.22-.21-.47-.41-.71-.61l-.24-.2c-.16-.13-.32-.26-.48-.37a30.42,30.42,0,0,0-6.34-3.64A22.8,22.8,0,0,0,54,26.58,34.67,34.67,0,0,0,39.7,28.7a48.81,48.81,0,0,0-12.6,7.07A71,71,0,0,0,21,41l-1.58-2.18-.07-.11H15.57l3.23,4.49c-.75.78-1.51,1.58-2.25,2.42A82.53,82.53,0,0,0,10,54V0L0,3.81l2.14-.29c2.21-.29,3.5-.16,4.16.42A2.64,2.64,0,0,1,7,6.08V70.32a2.23,2.23,0,0,1-2,1.85l-2.9.53,0,.5H14.9l0-.5L12,72.17a2.23,2.23,0,0,1-2-1.85V58.06a6.75,6.75,0,0,1,.33-1.48A11.94,11.94,0,0,1,11,54.92a19.59,19.59,0,0,1,1.84-3c1.35-1.94,2.81-3.85,4.33-5.7q1-1.2,2.07-2.34L38.09,70a1.56,1.56,0,0,1,.19,1.53,1.58,1.58,0,0,1-1.22,1l-1.45.22,0,.5H49.06l-2.19-.5a9.81,9.81,0,0,1-5.79-3.8L21.42,41.6a60.08,60.08,0,0,1,6.06-5.33,47.31,47.31,0,0,1,12.41-7,33.08,33.08,0,0,1,14-2A21.83,21.83,0,0,1,60.75,29a23.49,23.49,0,0,1,6,3.75c.14.11.27.24.41.36l.24.23c.21.19.42.39.62.6l.59.65.56.68a20.64,20.64,0,0,1,2,2.88,27.64,27.64,0,0,1,2.25,5.3.87.87,0,0,1-.11.18,6.68,6.68,0,0,1-1.62,1.65,10.19,10.19,0,0,1-4.38,1.66c-1.6.27-3.25.39-4.85.51s-3.21.25-4.83.51a14.58,14.58,0,0,0-4.82,1.62,12.52,12.52,0,0,0-3.95,3.5,13.52,13.52,0,0,0-2.25,4.81,14.54,14.54,0,0,0-.34,5.35A12.17,12.17,0,0,0,48,68.36a11.84,11.84,0,0,0,3.88,3.76,13.59,13.59,0,0,0,4.89,1.79,18.35,18.35,0,0,0,3.07.25,18.7,18.7,0,0,0,2-.1,20,20,0,0,0,4.85-1A14.56,14.56,0,0,0,71,70.64a16.46,16.46,0,0,0,3.78-4.4v6.85h7.67l0-.49-2.91-.54A2.27,2.27,0,0,1,77.61,70.35ZM50.42,66.94a10.76,10.76,0,0,1-1.16-4.06,14.73,14.73,0,0,1,.23-4.33,16.74,16.74,0,0,1,1.39-4.17A9.67,9.67,0,0,1,53.63,51a12.2,12.2,0,0,1,4.16-2,31.36,31.36,0,0,1,5.54-.89c1.32-.14,2.69-.28,4-.53A11.36,11.36,0,0,0,72,45.76a7.36,7.36,0,0,0,1.59-1.61l.12.38a29.57,29.57,0,0,1,.73,3.36,30.86,30.86,0,0,1,.36,3.4c0,.29,0,.57,0,.84V65a15.51,15.51,0,0,1-4.18,5.12,14,14,0,0,1-8.83,2.91,15.1,15.1,0,0,1-8.56-2.91A9.57,9.57,0,0,1,50.42,66.94Z" fill="#23221f"/><path d="M149.56,70.32v-.25h0c0-4.86,0-9.74,0-14.49V46.76c0-.15,0-.3,0-.45s0-.45,0-.67a21.35,21.35,0,0,0-.14-2.66,20,20,0,0,0-.46-2.63,14.08,14.08,0,0,0-.87-2.59,13.25,13.25,0,0,0-1.38-2.4,11,11,0,0,0-2-2,11.24,11.24,0,0,0-5-2.21,14.92,14.92,0,0,0-5.2-.05,11.24,11.24,0,0,0-4.72,2,17.57,17.57,0,0,0-3.61,3.54,50.48,50.48,0,0,0-5.18,8.53C120,47.32,119,49.55,118,51.71l-1.14,2.44c-.43.93-.91,1.92-1.4,2.93V0l-10,3.81,2.14-.29c2.22-.29,3.5-.16,4.16.41a2.66,2.66,0,0,1,.68,2.15V62.8c0,.05-.05.1-.08.14a34.64,34.64,0,0,1-2.8,4A17.79,17.79,0,0,1,106,70.34,10.57,10.57,0,0,1,96.88,72a7.73,7.73,0,0,1-3.72-2.27,11.33,11.33,0,0,1-2.08-3.78,20.34,20.34,0,0,1-.94-4.45,22.18,22.18,0,0,1-.1-2.34V28.57h12v-.72H90V16.19l-.5,0-.63,5.18a7,7,0,0,1-5.74,6l-3.06.51h-.86v.72H87V59.09a25.36,25.36,0,0,0,.07,2.63A17.46,17.46,0,0,0,88.21,67a10.64,10.64,0,0,0,3.25,4.53,9.64,9.64,0,0,0,5.16,1.9c.46,0,.93,0,1.41,0a19.17,19.17,0,0,0,3.73-.37,11.93,11.93,0,0,0,4.62-2.16A19.94,19.94,0,0,0,110,67.37a42,42,0,0,0,2.41-3.48v6.43a2.23,2.23,0,0,1-2,1.85l-2.9.53,0,.5h12.79l0-.5-2.91-.53a2.22,2.22,0,0,1-2-1.85v-12c.63-1.28,1.27-2.59,1.92-4L118.49,52c1-2.15,2-4.38,3.12-6.53.86-1.7,1.62-3.08,2.38-4.33a34.23,34.23,0,0,1,2.82-4,17.18,17.18,0,0,1,3.54-3.3,9.37,9.37,0,0,1,4.39-1.68,10.26,10.26,0,0,1,4.62.64,10,10,0,0,1,3.71,2.47,11.38,11.38,0,0,1,2.26,3.71,16.81,16.81,0,0,1,1,4.4,19.75,19.75,0,0,1,.12,2.31c0,.19,0,.38,0,.56s0,.35,0,.52v8.52c0,5,0,10.22,0,15.36a2.35,2.35,0,0,1-2,1.59l-2.9.53,0,.5h12.79l.05-.5-2.91-.53A2.22,2.22,0,0,1,149.56,70.32Z" fill="#23221f"/><path d="M193,51.71a12.41,12.41,0,0,1,.72,3.23c.06.56.07,1.14.08,1.68s-.06,1.16-.13,1.69a16.61,16.61,0,0,1-2.28,6.47,16.4,16.4,0,0,1-4.85,5,17,17,0,0,1-3.16,1.58,14.42,14.42,0,0,1-3.41.79,15.14,15.14,0,0,1-6.84-.84,17.92,17.92,0,0,1-5.82-3.44A22.67,22.67,0,0,1,160.6,58l33-16.12.23-.11,0-.1h0l-.12-.23a21.53,21.53,0,0,0-4.36-5.92,18.81,18.81,0,0,0-6.14-4,17.35,17.35,0,0,0-14.33.6,22.39,22.39,0,0,0-10.14,10.55,24,24,0,0,0-2.09,7.29,20.94,20.94,0,0,0-.18,3.85A23.61,23.61,0,0,0,157,57.6a21.54,21.54,0,0,0,1.22,3.7c.12.31.26.6.4.89s.28.6.44.88c.34.62.72,1.22,1,1.67a20,20,0,0,0,5.47,5.52,20.32,20.32,0,0,0,7.07,3,17.68,17.68,0,0,0,3.73.39,19.77,19.77,0,0,0,3.81-.38A19.17,19.17,0,0,0,187,70.45a19.63,19.63,0,0,0,5.32-5,24.79,24.79,0,0,0,4.63-13.77v-.26h-4Zm-3.13-8.83-29.5,14.41c0-.17-.11-.33-.16-.5a23.35,23.35,0,0,1,.23-13.49,19.41,19.41,0,0,1,1.38-3.21,16.62,16.62,0,0,1,1.94-2.92,17.82,17.82,0,0,1,2.49-2.5,18.55,18.55,0,0,1,3-1.92A15,15,0,0,1,176,31.14h0a14.2,14.2,0,0,1,6.63,1.67A14,14,0,0,1,189.88,42.88Z" fill="#23221f"/><path d="M224,30.83a14,14,0,0,0-7.22,2.07,19.32,19.32,0,0,0-5.4,5.2,32.26,32.26,0,0,0-3.59,6.55c-.16.38-.3.76-.45,1.15V30.89l-10,3.83,2.12-.29c2.22-.29,3.51-.17,4.17.41a2.66,2.66,0,0,1,.67,2.14V70.32a2.23,2.23,0,0,1-2,1.85l-2.9.53,0,.5H212.2l.05-.5-2.91-.53a2.23,2.23,0,0,1-2-1.85V47.63c.32-.91.67-1.82,1.06-2.72A33.5,33.5,0,0,1,210,41.62a22.49,22.49,0,0,1,2-3.06,14.16,14.16,0,0,1,5.48-4.44,8.63,8.63,0,0,1,6.45-.25l.34.14,0-3.18Z" fill="#23221f"/><path d="M233.6,25.34l.24,1.52.25-1.52c.53-3.24.87-3.59,4.11-4.11l1.52-.25-1.52-.25c-3.24-.52-3.58-.87-4.11-4.11l-.25-1.52-.24,1.52c-.53,3.24-.88,3.59-4.12,4.11L228,21l1.52.25C232.72,21.75,233.07,22.1,233.6,25.34Z" fill="#23221f"/><path d="M351,18.74a4.2,4.2,0,0,0-1.72-1.89,4.27,4.27,0,0,0-1.58-.52,4.16,4.16,0,0,0-.44-4.07l-.07-.09h-.11a4.2,4.2,0,0,0-2.5.54,4.35,4.35,0,0,0-1.24,1.14,4.26,4.26,0,0,0-1.25-1.14,4.16,4.16,0,0,0-2.49-.54h-.12l-.06.09a4.19,4.19,0,0,0-.78,2.44,4.35,4.35,0,0,0,.33,1.63,4.16,4.16,0,0,0-3.29,2.41l-.05.1.05.11a4.15,4.15,0,0,0,1.72,1.89h0a4.16,4.16,0,0,0,1.57.52,4.35,4.35,0,0,0-.33,1.63,4.19,4.19,0,0,0,.78,2.44l.06.09h.12l.39,0a4.18,4.18,0,0,0,2.1-.56,4.26,4.26,0,0,0,1.25-1.14A4.35,4.35,0,0,0,344.59,25a4.18,4.18,0,0,0,2.1.56l.4,0h.11l.07-.09a4.16,4.16,0,0,0,.44-4.07,4.27,4.27,0,0,0,1.58-.52A4.2,4.2,0,0,0,351,19l.05-.11Zm-5.34-.82-.2.11a4.12,4.12,0,0,1-1.63.53,4.24,4.24,0,0,1,1.27-1.15l.2-.11a3.67,3.67,0,0,1,1.57-.5A3.61,3.61,0,0,1,345.67,17.92Zm-2-1.32a4.4,4.4,0,0,1-.36,1.68A4.22,4.22,0,0,1,343,16.6v-.23a3.61,3.61,0,0,1,.36-1.61,3.71,3.71,0,0,1,.36,1.61Zm-2.32.7.19.11a4.4,4.4,0,0,1,1.28,1.15,4.16,4.16,0,0,1-1.64-.53l-.19-.11a3.74,3.74,0,0,1-1.22-1.12A3.67,3.67,0,0,1,341.39,17.3ZM341,19.77l.19-.11a4.16,4.16,0,0,1,1.64-.53,4.4,4.4,0,0,1-1.28,1.15l-.19.11a3.75,3.75,0,0,1-1.58.5A3.63,3.63,0,0,1,341,19.77Zm2,1.32a4.22,4.22,0,0,1,.36-1.68,4.4,4.4,0,0,1,.36,1.68v.23a3.75,3.75,0,0,1-.36,1.61,3.61,3.61,0,0,1-.36-1.61Zm2.32-.7-.2-.11a4.24,4.24,0,0,1-1.27-1.15,4.12,4.12,0,0,1,1.63.53l.2.11a3.51,3.51,0,0,1,1.21,1.12A3.71,3.71,0,0,1,345.31,20.39Z" fill="#23221f"/></svg>