<svg xmlns="http://www.w3.org/2000/svg" viewBox="0 0 45.35 39.38"><path d="M10.5,12.66a12,12,0,0,0-5.56,1.61h0A12,12,0,0,0,0,19.69a12,12,0,0,0,4.94,5.42h0a11.91,11.91,0,0,0,5.56,1.61,12,12,0,0,0-1.39,5.62h0a12,12,0,0,0,2.23,7,12.12,12.12,0,0,0,7.16-1.56h0a12.11,12.11,0,0,0,4.18-4,12,12,0,0,0,4.17,4h0A12.14,12.14,0,0,0,34,39.33a12,12,0,0,0,2.23-7h0a12,12,0,0,0-1.39-5.62,12,12,0,0,0,5.57-1.61h0a12,12,0,0,0,4.93-5.42,12,12,0,0,0-4.93-5.42h0a12.1,12.1,0,0,0-5.57-1.61A12,12,0,0,0,36.24,7h0A12.06,12.06,0,0,0,34,.05a12.07,12.07,0,0,0-7.16,1.57h0a11.88,11.88,0,0,0-4.17,4,12,12,0,0,0-4.18-4h0A12.05,12.05,0,0,0,11.34.05,12.06,12.06,0,0,0,9.11,7h0A12,12,0,0,0,10.5,12.66Z" fill="#23221f"/></svg>