<?xml version="1.0" encoding="utf-8"?>
<!-- Generator: Adobe Illustrator 24.1.0, SVG Export Plug-In . SVG Version: 6.00 Build 0)  -->
<svg version="1.1" id="Layer_1" xmlns="http://www.w3.org/2000/svg" xmlns:xlink="http://www.w3.org/1999/xlink" x="0px" y="0px"
	 viewBox="0 0 240 240" style="enable-background:new 0 0 240 240;" xml:space="preserve">
<g>
	<animateTransform attributeName="transform"
                          attributeType="XML"
                          type="rotate"
                          from="0 120 120"
                          to="360 120 120"
                          dur="10s"
                          repeatCount="indefinite"/>
	<path d="M169.9,38.4l2.3-3.3l0.2,0.2c-1.5,2.3-1.5,5,1.1,6.8c1.6,1.1,3.7,1.1,4.7-0.4c2.5-3.6-3.6-9.7-1-13.5
		c0.8-1.2,2.9-2.1,5.4-0.4c1.4,0.9,2.7,2.7,3,3.4l-2.4,2.6l-0.2-0.2c1.4-2.1,1.4-4.4-0.6-5.7c-1.2-0.8-2.8-0.9-3.7,0.4
		c-2.5,3.6,3.8,9,1.1,13c-1.2,1.8-3.6,2.6-6.4,0.7C171.8,41.2,170.3,39.4,169.9,38.4z"/>
	<path d="M183.7,39.1c3.6-4,8-4.3,10.7-1.9c2.2,2,2.7,4.6,2,5.4c-0.3,0.4-0.7,0.4-1.1,0.1c-0.9-0.8,1.3-3.1-1.3-5.4
		c-1.7-1.5-5.6-1.3-8.9,2.4c-3.7,4.1-3.4,8-1.2,10c1.3,1.2,2.9,1.7,5.4,1.1l0.1,0.3c-2.5,1-4.7,0.5-6.4-1
		C180.3,47.5,180.1,43.2,183.7,39.1z"/>
	<path d="M189.9,54l8.9-7.9c1.4-1.2,1.5-1.8,0.3-3l0.2-0.2l2.8,1.8l0,0.3l-2,1.8c2.3,0.1,4.6,0.8,5.9,2.2c0.5,0.6,0.7,1.4,0.2,1.8
		c-0.4,0.3-0.9,0.3-1.2-0.1c-0.5-0.5,0-1.1-0.9-2.2c-0.7-0.8-1.7-1.2-4.2-1.5l-9,8c-0.6,0.6-0.3,1.3,1,3l-0.2,0.2l-4.3-4.8l0.2-0.2
		C188.6,54.1,189.3,54.5,189.9,54z"/>
	<path d="M200.5,56c4.4-3.1,8.7-2.8,11.1,0.7c2.4,3.4,1.1,7.4-3.2,10.4c-4.4,3-8.6,2.8-10.9-0.6C195.1,63,196.3,59,200.5,56z
		 M197.9,66.5c1.7,2.5,5.5,2.3,9.4-0.4c4.3-2.9,5.8-6.7,4-9.4c-1.8-2.6-5.6-2.4-9.6,0.4C197.5,59.9,196,63.7,197.9,66.5z"/>
	<path d="M203.8,73l18.1-10c1.6-0.9,1.9-1.4,0.8-2.9l0.2-0.2l2.4,2.4l0,0.3l-21,11.6c-0.7,0.4-0.6,1.2,0,2.6l-0.3,0.1l-2.8-5
		l0.3-0.1C202.5,72.8,203.1,73.4,203.8,73z"/>
	<path d="M206.6,78.5l18.7-8.8c1.7-0.8,2-1.3,1-2.8l0.2-0.2l2.3,2.5l-0.1,0.3l-21.7,10.2c-0.8,0.4-0.6,1.2-0.2,2.6l-0.3,0.1
		l-2.4-5.2l0.3-0.1C205.4,78.2,205.9,78.8,206.6,78.5z"/>
	<path d="M213.7,88.1l11-3.5c-0.1-0.3-0.2-0.6-0.5-1.5l0.2-0.1c0.7,1.1,2,1.4,5,1.1l0,0.4l-4,1.3c0.3,1,1.1,3.2,1.4,4.1l-0.6,0.2
		c-0.2-0.7-0.8-3.1-1.2-4.2l-10.6,3.3c-3.1,1-4,2.1-3.6,3.5c0.2,0.8,0.9,1.3,2,1.7l-0.1,0.3c-1.6-0.3-2.5-1-2.9-2.2
		C209.5,90.7,210.3,89.2,213.7,88.1z"/>
	<path d="M219.3,93.4c5.3-1,9.1,0.9,9.9,5c0.8,4.1-1.9,7.3-7,8.3c-5.2,1-9-0.9-9.8-4.9C211.6,97.6,214.2,94.4,219.3,93.4z
		 M212.7,101.9c0.6,2.9,4.1,4.3,8.7,3.4c5.1-1,8-3.8,7.4-7c-0.6-3.1-4.2-4.5-9-3.5C214.9,95.7,212.1,98.6,212.7,101.9z"/>
	<path d="M223,115.4c4.1,1.4,8.3,4.2,8.2,8c0,2.2-1.4,3.5-3.7,2.7c-2.3-0.7-4.7-3.7-4.7-9.4c-5.1-1.7-7.8-0.5-7.8,1.6
		c0,1.5,1.2,3.8,4,5.9l-0.2,0.3c-3.1-2-4.6-4.8-4.6-6.6C214.2,115,217.2,113.5,223,115.4z M227.5,125c1.9,0.7,3.4,0.3,3.4-1.7
		c0-2-2.1-4.4-7.7-6.4h0C223.2,120.9,224.9,124.1,227.5,125z"/>
	<path d="M217,133.3l3.9,0.1c-5.2-3.7-7-5.7-6.7-7.9c0.1-0.8,0.6-1.2,1.2-0.9c0.5,0.2,0.7,0.7,0.7,1.2c-0.1,0.7-0.8,0.6-0.9,1.4
		c-0.1,0.8,0.5,2.1,6.4,6.3l3.9,0.1c4.9,0.2,5.1-1.2,1.4-4.4l0.2-0.3c2.5,2,3.5,3.7,3.4,4.6c-0.1,0.8-0.8,1.5-4,1.4l-3.8-0.1
		c5.1,3.7,6.9,5.7,6.6,7.9c-0.1,0.8-0.6,1.2-1.2,0.9c-0.5-0.2-0.7-0.7-0.7-1.2c0.1-0.7,0.8-0.6,0.9-1.4c0.1-0.8-0.5-2.1-6.3-6.2
		l-4-0.1c-4.9-0.2-5.1,1.2-1.4,4.4l-0.2,0.3c-2.5-2-3.5-3.7-3.4-4.6C213.1,133.9,213.8,133.2,217,133.3z"/>
	<path d="M208.6,138.4l15.4,10c3.3,2.2,3,0.3,0.3-3.3l0.3-0.3c2,2.6,2.8,4.6,2.5,5.5c-0.3,0.9-1.1,0.8-3.2-0.6l-4-2.6
		c4.7,3.9,5.9,7.4,5.4,9.3c-0.4,1.5-1.7,1.9-3.8,1.3c-6.4-1.9-11.8-8.7-10.2-14.2c0.1-0.5,0.4-1.1,0.7-1.6l-3.7-2.4
		c-1-0.7-1.9-0.3-2.4,0.9l-0.4-0.2l1.5-5.2l0.3,0.2C207.2,136.6,207.6,137.7,208.6,138.4z M211.4,143.9c-1.1,3.8,4,10.6,10,12.4
		c1.9,0.6,2.8,0.2,3-0.8c0.6-2.1-1.7-6.2-7.9-10.5l-3.9-2.6C212,142.7,211.6,143.2,211.4,143.9z"/>
	<path d="M211,154.6l16.6,13.5c0.7,0.6,1.1,0.4,1.6-1.1l0.2,0.2l-0.4,3.4l-0.2,0.2l-18.1-14.8c-2.8-2.3-3.1-1-0.6,3.3l-0.3,0.2
		c-1.8-2.8-2.3-4.9-1.9-5.7C208.2,153,209,152.9,211,154.6z"/>
	<path d="M213.2,163.1c4,3.9,5.4,8.4,3.7,11.6c-1.6,3-5.3,2.6-9.1-1.1c-3.9-3.9-5.4-8.3-3.7-11.4
		C205.8,159.1,209.5,159.4,213.2,163.1z M204.3,162.6c-1.2,2.3,0.3,5.9,3.9,9.5c3.8,3.8,7.3,4.6,8.6,2.2c1.3-2.4-0.3-6.2-4-9.8
		C209.1,160.8,205.6,160.2,204.3,162.6z"/>
	<path d="M208.5,181.5c2.4,3.1,2.7,1.3,1.3-3l0.4-0.2c1.1,3.1,1.1,5.3,0.6,6c-0.5,0.8-1.3,0.4-2.8-1.5l-5.8-7.4
		c5.4,8.1,6.8,11.6,5.2,13.8c-0.4,0.6-1.1,0.8-1.5,0.3c-0.3-0.4-0.3-1-0.1-1.4c0.4-0.5,1-0.2,1.4-0.9c0.6-0.9,0.5-3.1-8.1-15.7
		l0.7-1.1L208.5,181.5z"/>
	<path d="M200.4,184.4c2.2,3.8,3.6,8.6,1.1,11.4c-1.5,1.7-3.3,1.7-4.6-0.3c-1.2-2-1.2-5.9,2.6-10.2c-2.8-4.7-5.6-5.4-7-3.9
		c-1,1.2-1.6,3.7-0.8,7l-0.3,0.1c-1.1-3.6-0.4-6.6,0.8-8C194,178.4,197.3,179.2,200.4,184.4z M197.6,194.6c1,1.8,2.4,2.4,3.7,0.9
		c1.3-1.5,1.2-4.7-1.7-9.8l0,0C197,188.7,196.2,192.2,197.6,194.6z"/>
	<path d="M183.9,203.6c0.8,1.1,0.5,2.6-0.4,3.3c-1.1,0.8-2.5,0.5-3.3-0.5c-0.7-1-0.5-2.4,0.6-3.2
		C181.7,202.4,183.2,202.6,183.9,203.6z"/>
	<path d="M162.7,205.5l1.6,3.6l-0.3,0.1c-1.2-2.5-3.5-3.9-6.4-2.6c-1.7,0.8-2.9,2.6-2.2,4.2c1.8,4,10.2,2,12,6.2
		c0.6,1.4,0.2,3.6-2.5,4.8c-1.5,0.7-3.7,0.9-4.5,0.7l-1-3.4l0.3-0.1c1.1,2.3,3,3.5,5.2,2.5c1.3-0.6,2.2-2,1.6-3.4
		c-1.8-4-9.7-1.5-11.7-6c-0.9-2-0.3-4.5,2.8-5.8C159.2,205.6,161.5,205.3,162.7,205.5z"/>
	<path d="M154.8,216.9c1.5,5.2-0.6,9.1-4,10.1c-2.9,0.9-5.3-0.1-5.6-1.2c-0.1-0.5,0.1-0.8,0.5-1c1.2-0.3,1.9,2.8,5.3,1.8
		c2.2-0.6,4-4.1,2.6-8.8c-1.6-5.3-5-7.1-7.8-6.3c-1.7,0.5-3,1.6-3.7,4l-0.3-0.1c0.5-2.7,2.1-4.3,4.2-4.9
		C149.4,209.5,153.2,211.5,154.8,216.9z"/>
	<path d="M138.9,214.2l2,11.7c0.3,1.8,0.7,2.3,2.4,1.8l0.1,0.3l-3,1.4l-0.3-0.2l-0.5-2.7c-1.3,1.9-3.1,3.5-5,3.8
		c-0.8,0.1-1.5-0.1-1.6-0.8c-0.1-0.5,0.2-0.9,0.7-1c0.7-0.1,1,0.6,2.3,0.3c1-0.2,2-0.8,3.4-2.8l-2-11.8c-0.1-0.8-1-0.9-3.1-0.7
		l-0.1-0.3l6.3-1.1l0.1,0.3C139.5,213.1,138.8,213.4,138.9,214.2z"/>
	<path d="M131.6,222.2c0.3,5.4-2.2,8.8-6.4,9c-4.1,0.2-6.9-3-7.2-8.2c-0.3-5.3,2.2-8.7,6.3-8.9C128.5,213.9,131.4,217,131.6,222.2z
		 M124.1,214.4c-3,0.1-4.8,3.4-4.6,8.2c0.2,5.2,2.6,8.5,5.9,8.3c3.1-0.1,5-3.5,4.8-8.4C129.9,217.5,127.5,214.2,124.1,214.4z"/>
	<path d="M115.4,216l-1.1,20.7c-0.1,1.8,0.2,2.4,2,2.2l0.1,0.3L113,240l-0.2-0.2l1.3-23.9c0-0.9-0.8-1.1-2.2-1.4l0-0.3l5.8,0.3
		l0,0.3C116.2,215,115.4,215.1,115.4,216z"/>
	<path d="M109.3,215.5l-2.4,20.6c-0.2,1.8,0.1,2.4,1.9,2.3l0,0.3l-3.4,0.6l-0.2-0.2l2.8-23.8c0.1-0.9-0.7-1.2-2.1-1.5l0-0.3l5.7,0.7
		l0,0.3C110.2,214.5,109.4,214.7,109.3,215.5z"/>
	<path d="M97.4,216.5l-2.9,11.2c0.4,0.1,0.6,0.2,1.5,0.4l-0.1,0.3c-1.3,0-2.2,0.9-3.6,3.7l-0.3-0.2l1-4.1c-1-0.3-3.3-0.8-4.2-1
		l0.1-0.6c0.7,0.2,3.1,0.9,4.2,1.2l2.8-10.8c0.8-3.2,0.3-4.5-1.1-4.9c-0.8-0.2-1.6,0.1-2.5,0.9l-0.2-0.2c1.1-1.2,2.1-1.6,3.4-1.3
		C97.4,211.5,98.3,213,97.4,216.5z"/>
	<path d="M89.9,218.4c-1.9,5-5.6,7.2-9.5,5.7c-3.9-1.5-5.1-5.5-3.3-10.3c1.9-5,5.5-7.2,9.3-5.7C90.4,209.6,91.7,213.5,89.9,218.4z
		 M86.1,208.3c-2.8-1.1-5.8,1.2-7.5,5.7c-1.8,4.8-1,8.8,2.1,10c2.9,1.1,6-1.2,7.7-5.8C90.2,213.4,89.3,209.5,86.1,208.3z"/>
	<path d="M69.3,209.8c-3.4,2.8-7.9,4.9-11.1,2.9c-1.9-1.2-2.3-3-0.4-4.6c1.8-1.6,5.6-2.1,10.5,0.9c4.1-3.5,4.5-6.4,2.7-7.5
		c-1.3-0.8-3.9-0.9-7.1,0.3l-0.1-0.3c3.4-1.6,6.5-1.5,8-0.5C74.2,202.6,73.9,205.9,69.3,209.8z M58.8,208.8c-1.6,1.3-2,2.7-0.3,3.8
		c1.7,1.1,4.8,0.4,9.4-3.3l0,0C64.5,207.2,60.9,207,58.8,208.8z"/>
	<path d="M57.2,195.4l-2.2,3.3c5.9-2.5,8.5-2.9,10.2-1.5c0.6,0.5,0.7,1.1,0.2,1.5c-0.4,0.3-1,0.3-1.4-0.1c-0.5-0.4-0.1-1-0.7-1.5
		c-0.6-0.5-2-0.7-8.7,2.1l-2.2,3.2c-2.7,4-1.7,4.9,3,3.5l0.1,0.4c-3,1-5,1-5.7,0.4c-0.6-0.5-0.8-1.5,1-4.1l2.1-3.2
		c-5.8,2.4-8.5,2.8-10.2,1.4c-0.6-0.5-0.7-1.1-0.2-1.5c0.4-0.3,1-0.3,1.4,0.1c0.5,0.4,0.1,1,0.7,1.5c0.6,0.5,2,0.7,8.6-2l2.2-3.3
		c2.7-4,1.7-4.9-3-3.5l-0.1-0.4c3-1,5-1,5.7-0.4C58.8,191.7,59,192.7,57.2,195.4z"/>
	<path d="M57.4,185.5l-16.6,7.8c-3.6,1.7-1.9,2.4,2.7,2l0.1,0.4c-3.3,0.4-5.4-0.1-6-0.8c-0.6-0.7-0.1-1.4,2.1-2.4l4.3-2
		c-5.8,1.9-9.4,1.2-10.7-0.3c-1-1.2-0.8-2.4,0.9-3.9c4.9-4.4,13.6-5.5,17.5-1.2c0.3,0.4,0.7,0.9,1,1.4l4-1.9
		c1.1-0.5,1.2-1.4,0.5-2.5l0.4-0.2l3.6,4l-0.4,0.2C59.6,185.2,58.4,185,57.4,185.5z M51.2,185c-2.7-3-11.1-2.2-15.8,2
		c-1.5,1.3-1.6,2.3-1,3c1.5,1.6,6.1,1.9,13.1-1.1l4.3-2C51.9,186.2,51.7,185.5,51.2,185z"/>
	<path d="M42.3,179l-20.2,6.9c-0.9,0.3-0.9,0.7,0.1,2l-0.3,0.1l-2.7-2.1l0-0.3l22.1-7.5c3.4-1.2,2.5-2.1-2.4-2.3l0-0.4
		c3.3,0,5.3,0.7,5.9,1.4C45.1,177.5,44.8,178.1,42.3,179z"/>
	<path d="M33.9,176.4c-5.5,1.3-10,0.2-11.8-3c-1.7-3,0.6-5.9,5.7-7.1c5.4-1.3,9.9-0.2,11.6,2.9C41.2,172.2,39,175.2,33.9,176.4z
		 M39,169.1c-1.3-2.2-5.2-2.9-10.2-1.7c-5.2,1.3-7.7,3.7-6.4,6.1c1.4,2.3,5.4,3,10.4,1.8C38,174.1,40.4,171.5,39,169.1z"/>
	<path d="M20.7,162.6c-3.9,0.4-2.5,1.7,1.9,2.7l-0.1,0.4c-3.3-0.7-5.1-1.8-5.4-2.7c-0.4-0.8,0.3-1.3,2.8-1.6l9.3-1
		c-9.8,0.3-13.4-0.3-14.5-2.8c-0.3-0.7-0.1-1.3,0.5-1.4c0.5-0.1,1,0.2,1.2,0.7c0.3,0.6-0.3,0.9,0,1.7c0.4,1,2.3,2,17.6,1.4l0.5,1.2
		L20.7,162.6z"/>
	<path d="M22.6,154.3c-4.4-0.1-9.2-1.4-10.3-5.1c-0.6-2.1,0.3-3.7,2.7-3.7c2.4,0,5.6,2.1,7.3,7.6c5.4,0.1,7.6-1.9,7-3.9
		c-0.4-1.5-2.3-3.3-5.5-4.4l0.1-0.3c3.6,1,5.9,3.1,6.4,4.9C31.1,152.1,28.6,154.4,22.6,154.3z M15.4,146.6c-2,0-3.3,0.7-2.7,2.7
		c0.6,1.9,3.4,3.5,9.3,3.7l0,0C20.7,149.2,18.1,146.6,15.4,146.6z"/>
	<path d="M15,130.2c-1.3,0.1-2.4-0.9-2.5-2.1c-0.1-1.3,0.9-2.4,2.2-2.5c1.3-0.1,2.3,0.8,2.4,2.2C17.1,128.9,16.2,130.1,15,130.2z"/>
	<path d="M24.2,117.1l-4-0.3l0-0.3c2.8,0.2,5.1-1.2,5.4-4.4c0.1-1.9-0.9-3.7-2.7-3.9c-4.4-0.3-6.6,8-11.1,7.6
		c-1.5-0.1-3.3-1.5-3-4.5c0.1-1.7,1-3.6,1.5-4.3l3.5,0.7l0,0.3c-2.6-0.2-4.5,1-4.7,3.4c-0.1,1.4,0.7,2.9,2.2,3
		c4.3,0.3,5.9-7.8,10.8-7.4c2.2,0.2,4.1,1.8,3.8,5.2C25.8,114,25,116.2,24.2,117.1z"/>
	<path d="M18,104.8c-5.3-1.1-7.8-4.8-7-8.3c0.6-2.9,2.6-4.6,3.7-4.4c0.5,0.1,0.7,0.5,0.6,0.9c-0.2,1.2-3.3,0.4-4.1,3.8
		c-0.5,2.2,1.7,5.5,6.5,6.5c5.4,1.1,8.7-1.1,9.2-3.9c0.4-1.7,0-3.4-1.8-5.2l0.2-0.2c2.1,1.7,2.8,3.8,2.3,6
		C27,103.5,23.4,105.9,18,104.8z"/>
	<path d="M27.8,92.1l-11.2-3.8c-1.7-0.6-2.3-0.4-2.8,1.3l-0.3,0l0.1-3.3l0.3-0.2l2.6,0.9c-1.1-2-1.6-4.4-1-6.2
		c0.3-0.7,0.8-1.3,1.5-1.1c0.5,0.2,0.7,0.6,0.5,1.1c-0.2,0.7-1,0.6-1.4,1.9c-0.3,1-0.2,2.1,0.8,4.3l11.4,3.8
		c0.8,0.3,1.3-0.4,2.1-2.4l0.3,0.1l-2,6.1l-0.3-0.1C28.5,93.1,28.6,92.3,27.8,92.1z"/>
	<path d="M24.3,81.8c-4.8-2.3-6.7-6.2-4.9-10c1.8-3.7,5.9-4.7,10.6-2.4c4.8,2.3,6.7,6.1,4.9,9.8C33,83,28.9,84,24.3,81.8z
		 M34.7,78.8c1.3-2.7-0.7-5.9-5-7.9c-4.7-2.2-8.7-1.8-10.1,1.2c-1.4,2.8,0.7,6.1,5.1,8.2C29.2,82.5,33.2,81.9,34.7,78.8z"/>
	<path d="M37.4,70.5L19.7,59.7c-1.6-1-2.2-0.9-2.9,0.7l-0.3-0.1l0.9-3.3l0.3-0.1l20.4,12.5c0.7,0.4,1.4-0.1,2.3-1.3l0.3,0.2l-3,4.9
		L37.3,73C37.9,71.7,38.1,70.9,37.4,70.5z"/>
	<path d="M40.7,65.3l-17-11.9c-1.5-1.1-2.1-1.1-2.9,0.5l-0.3-0.1l1.1-3.2l0.3-0.1l19.6,13.8c0.7,0.5,1.4,0,2.3-1.1l0.2,0.2L40.7,68
		l-0.2-0.2C41.1,66.5,41.4,65.8,40.7,65.3z"/>
	<path d="M45.5,54.4l-8.5-7.8c-0.2,0.3-0.4,0.5-1.1,1.2l-0.2-0.2c0.6-1.2,0.3-2.4-1.5-4.9l0.3-0.2l3.1,2.8c0.7-0.8,2.2-2.5,2.9-3.2
		l0.4,0.4c-0.5,0.6-2.3,2.3-3,3.1l8.2,7.5c2.4,2.2,3.8,2.4,4.8,1.3c0.6-0.6,0.7-1.5,0.4-2.6l0.3-0.1c0.5,1.5,0.4,2.7-0.5,3.6
		C49.9,56.8,48.2,56.8,45.5,54.4z"/>
	<path d="M47.3,47c-3.5-4-3.7-8.3-0.6-11.1c3.1-2.7,7.3-2,10.7,2c3.5,4,3.7,8.2,0.6,10.9C54.8,51.5,50.7,50.9,47.3,47z M58,48.4
		c2.3-2,1.7-5.7-1.5-9.2c-3.4-3.9-7.3-5.1-9.8-2.9c-2.4,2.1-1.8,5.9,1.4,9.5C51.5,49.6,55.4,50.6,58,48.4z"/>
	<path d="M64.6,32.8c-0.9-4.3-0.7-9.3,2.7-11.2c1.9-1.1,3.7-0.6,4.2,1.8c0.5,2.3-0.7,5.9-5.7,8.8c1.1,5.3,3.6,7,5.3,5.9
		c1.3-0.8,2.7-3,3-6.4l0.3,0c-0.1,3.7-1.7,6.4-3.3,7.3C68.7,40.6,65.9,38.7,64.6,32.8z M70.5,24.1c-0.4-2-1.5-3.1-3.2-2.1
		c-1.7,1-2.6,4.1-1.5,9.9l0,0C69.2,29.8,71.1,26.7,70.5,24.1z"/>
	<path d="M83.1,29l-1.9-3.5c-0.6,6.4-1.5,8.9-3.5,9.7c-0.7,0.3-1.3,0.1-1.4-0.6c-0.1-0.5,0.2-1,0.7-1.2c0.6-0.2,0.9,0.3,1.7,0
		c0.8-0.3,1.5-1.4,2.3-8.6l-1.8-3.4c-2.3-4.3-3.5-3.8-4.5,1l-0.4-0.1c0.5-3.1,1.5-4.9,2.3-5.2c0.7-0.3,1.7,0,3.2,2.8l1.8,3.4
		c0.6-6.3,1.5-8.8,3.5-9.6c0.7-0.3,1.3-0.1,1.4,0.6c0.1,0.5-0.2,1-0.7,1.2c-0.6,0.2-0.9-0.3-1.7,0c-0.8,0.3-1.5,1.4-2.3,8.5l1.9,3.5
		c2.3,4.3,3.5,3.8,4.5-1l0.4,0.1c-0.5,3.1-1.5,4.8-2.3,5.2C85.6,32.1,84.6,31.8,83.1,29z"/>
	<path d="M91.7,33.8l1.1-18.3c0.2-4-1.2-2.8-3,1.4l-0.4-0.1c1.3-3.1,2.6-4.7,3.5-4.9c0.9-0.2,1.3,0.5,1.1,3l-0.3,4.8
		c1.1-6,3.4-8.8,5.4-9.3c1.5-0.4,2.5,0.5,3,2.7c1.5,6.4-1.7,14.6-7.3,15.9c-0.5,0.1-1.1,0.2-1.7,0.2l-0.3,4.4
		c-0.1,1.2,0.7,1.8,1.9,1.6l0,0.4l-5.3,1.3l0-0.4C90.9,35.9,91.6,35,91.7,33.8z M95.1,28.6c3.9-0.9,7.2-8.7,5.8-14.8
		c-0.5-2-1.2-2.5-2.2-2.3c-2.1,0.5-4.5,4.5-5.2,12.1l-0.3,4.7C93.7,28.6,94.4,28.8,95.1,28.6z"/>
	<path d="M104.6,23.6l3.5-21.1c0.1-0.9-0.2-1.1-1.8-0.9l0-0.3l3.2-1.4l0.2,0.1l-3.9,23c-0.6,3.6,0.7,3.2,3.1-1.1l0.4,0.2
		c-1.6,2.9-3.1,4.4-4,4.5C104.6,26.8,104.2,26.2,104.6,23.6z"/>
	<path d="M110.9,17.5c1.4-5.4,4.6-8.9,8.2-9c3.4-0.1,4.9,3.3,3.5,8.4c-1.4,5.3-4.5,8.8-8.1,8.9C111.1,25.9,109.5,22.5,110.9,17.5z
		 M114.9,25.4c2.6-0.1,5-3.2,6.3-8.1c1.4-5.2,0.4-8.6-2.3-8.5c-2.7,0.1-5.2,3.3-6.6,8.3C111,22.2,112.1,25.5,114.9,25.4z"/>
	<path d="M129.2,12.4c1.5-3.7-0.3-3-3.3,0.4l-0.3-0.2c2.2-2.5,4-3.6,4.9-3.5c0.9,0.1,1,0.9,0.1,3.2l-3.5,8.7
		c4.3-8.8,6.6-11.7,9.3-11.4c0.8,0.1,1.2,0.5,1,1.1c-0.2,0.5-0.7,0.8-1.2,0.7c-0.7-0.1-0.7-0.7-1.5-0.8c-1.1-0.1-2.9,1.1-9.5,14.8
		l-1.3-0.1L129.2,12.4z"/>
	<path d="M135.7,18c2.2-3.8,5.6-7.4,9.4-6.6c2.2,0.4,3.2,2,2,4.1c-1.1,2.1-4.5,4-10.1,2.9c-2.6,4.7-1.9,7.6,0.1,8
		c1.5,0.3,4-0.5,6.5-2.8l0.2,0.2c-2.6,2.7-5.5,3.7-7.3,3.3C133.7,26.5,132.7,23.3,135.7,18z M145.9,15.3c1-1.8,0.9-3.3-1.1-3.7
		c-2-0.4-4.7,1.3-7.7,6.4l0,0C141.1,18.8,144.6,17.7,145.9,15.3z"/>
	<path d="M160.6,22.7c0.5-1.2,2-1.7,3-1.2c1.2,0.6,1.7,1.9,1.2,3.1c-0.5,1.1-1.9,1.7-3.1,1.1C160.7,25.2,160.1,23.8,160.6,22.7z"/>
</g>
</svg>
