<?xml version="1.0" encoding="utf-8"?>
<!-- Generator: Adobe Illustrator 24.1.0, SVG Export Plug-In . SVG Version: 6.00 Build 0)  -->
<svg version="1.1" id="Layer_1" xmlns="http://www.w3.org/2000/svg" xmlns:xlink="http://www.w3.org/1999/xlink" x="0px" y="0px"
	 width="240px" height="240px" viewBox="0 0 240 240" enable-background="new 0 0 240 240" xml:space="preserve">
<g>
	<animateTransform attributeName="transform"
                          attributeType="XML"
                          type="rotate"
                          from="0 120 120"
                          to="360 120 120"
                          dur="10s"
                          repeatCount="indefinite"/>
	<path fill="#23221F" d="M175.1,41.6c-1.2-0.8-2.1-1.8-2.7-2.8l1.8-3.1l0.4,0.3l-0.6,1.9c-0.1,1.5,0.4,2.7,1.5,3.5
		c0.8,0.6,1.6,0.8,2.4,0.8c0.8-0.1,1.5-0.5,2-1.1c0.5-0.7,0.7-1.4,0.5-2.2c-0.2-0.7-0.7-1.6-1.5-2.6c-1.5-2-1.8-3.8-0.8-5.2
		c0.6-0.9,1.5-1.3,2.6-1.5c1.1-0.1,2.1,0.2,3.1,0.9c0.7,0.5,1.3,1.2,1.8,2l1,0.4l-1.9,3l-0.4-0.3l0.5-2.8c-0.3-0.8-0.8-1.5-1.5-2
		c-0.7-0.5-1.4-0.7-2.1-0.7c-0.7,0.1-1.2,0.4-1.7,1c-0.5,0.6-0.6,1.3-0.4,1.9c0.2,0.6,0.6,1.4,1.3,2.4c0.4,0.6,0.7,1,0.9,1.3
		c0.2,0.3,0.4,0.8,0.6,1.3c0.2,0.5,0.3,1,0.2,1.5s-0.3,1-0.7,1.5c-0.7,0.9-1.6,1.5-2.8,1.6C177.5,42.8,176.3,42.4,175.1,41.6z"/>
	<path fill="#23221F" d="M184.6,49.3c-1.3-1.1-1.9-2.6-1.9-4.4c0-1.8,0.6-3.4,1.9-4.8c1.4-1.5,3.1-2.4,5-2.5c1.9-0.1,3.6,0.4,5,1.8
		c0.9,0.8,1.5,1.7,1.7,2.7c0.2,1,0.1,1.7-0.4,2.3c-0.3,0.3-0.6,0.4-0.9,0.5c-0.4,0-0.7-0.1-0.9-0.3c-0.3-0.3-0.4-0.6-0.4-1
		c0-0.4,0.2-0.7,0.6-0.9c0.2-0.2,0.4-0.3,0.6-0.4c0.2,0,0.4-0.1,0.4-0.1c0.1-0.2,0-0.6-0.1-1.2c-0.2-0.5-0.5-1-0.9-1.4
		c-1-0.9-2.3-1.3-3.8-1.1c-1.5,0.2-2.9,0.9-4,2.2c-1.2,1.3-1.9,2.8-2,4.3c-0.1,1.5,0.4,2.8,1.4,3.7c1.3,1.2,3,1.6,4.9,1.1l0.1,0.4
		C188.3,51.1,186.2,50.8,184.6,49.3z"/>
	<path fill="#23221F" d="M189,53l0.4-0.2l0.7,0.7c0.2,0.2,0.3,0.3,0.4,0.4c0.1,0.1,0.2,0.1,0.3,0.2c0.1,0,0.2,0,0.2-0.1l7.3-6.4
		c0.5-0.4,0.8-0.8,0.9-1c0.1-0.2,0-0.5-0.2-0.8l-0.7-1l0.3-0.2l3.1,2.3l-3.9,3.3l0,0c3.4-1.3,5.6-1.4,6.7-0.2
		c0.3,0.4,0.5,0.8,0.4,1.2c0,0.4-0.2,0.7-0.5,1c-0.3,0.2-0.6,0.3-0.9,0.3c-0.3,0-0.6-0.1-0.9-0.4s-0.3-0.6-0.3-0.9
		c0-0.4,0.2-0.7,0.6-1.1c-1.2-0.7-3.1-0.5-5.8,0.7l-5.3,4.6c-0.1,0.1-0.1,0.2-0.1,0.3c0,0.1,0.2,0.3,0.5,0.7l0.9,1.2l-0.3,0.4
		L189,53z"/>
	<path fill="#23221F" d="M198.8,65.9c-1.1-1.6-1.4-3.3-1.1-5.1c0.4-1.8,1.4-3.3,3-4.4c1.7-1.1,3.4-1.5,5.3-1.2
		c1.9,0.3,3.4,1.3,4.4,2.8c1.1,1.6,1.4,3.2,1,5.1c-0.4,1.8-1.4,3.3-3,4.4c-1.7,1.2-3.5,1.6-5.3,1.3
		C201.3,68.4,199.8,67.4,198.8,65.9z M199.1,65.6c0.8,1.1,1.9,1.7,3.5,1.8c1.6,0.1,3.1-0.4,4.6-1.4c2.1-1.4,3.2-2.9,3.5-4.5
		c0.3-1.2,0-2.3-0.7-3.3c-0.8-1.1-1.9-1.8-3.5-1.9c-1.5-0.1-3,0.4-4.5,1.4c-2.1,1.4-3.3,3-3.7,4.8C198.2,63.6,198.4,64.6,199.1,65.6
		z"/>
	<path fill="#23221F" d="M203.1,71.9l0.4-0.1l0.5,0.9c0.1,0.2,0.2,0.4,0.3,0.5c0.1,0.1,0.1,0.2,0.2,0.2c0.1,0,0.2,0,0.3,0l15.2-8
		c0.6-0.3,1-0.6,1.2-0.8c0.1-0.2,0.1-0.5,0-0.9l-0.5-1.2l0.3-0.1l2.5,3.1l-18,9.5c-0.1,0.1-0.2,0.1-0.1,0.3c0,0.1,0.2,0.4,0.4,0.9
		l0.4,0.9l-0.3,0.3L203.1,71.9z"/>
	<path fill="#23221F" d="M206.1,77.7l0.4-0.1l0.5,0.9c0.1,0.2,0.2,0.4,0.3,0.5c0.1,0.1,0.1,0.2,0.2,0.2c0.1,0,0.2,0,0.3,0l15.7-7
		c0.7-0.3,1.1-0.5,1.2-0.8s0.2-0.5,0.1-0.9l-0.4-1.2l0.3-0.1l2.3,3.2l-18.6,8.3c-0.1,0.1-0.2,0.1-0.1,0.3c0,0.1,0.1,0.4,0.3,0.9
		l0.3,0.9l-0.4,0.3L206.1,77.7z"/>
	<path fill="#23221F" d="M211.5,93.3c-0.5-1.8,0.1-3,2-3.5l9.4-2.6l-0.6-2.3l0.9,0l0.7,2l2.6-0.6l0.4,1.5l-2.6,0.7l1.2,4.2l-1.1,0
		l-1.2-4c-6.1,1.6-9.1,2.5-9.1,2.5c-1.4,0.3-1.9,1.1-1.5,2.4c0.1,0.2,0.1,0.4,0.2,0.6c0.1,0.2,0.2,0.3,0.4,0.5
		c0.2,0.2,0.3,0.3,0.4,0.4c0.1,0.1,0.2,0.2,0.5,0.4c0.3,0.2,0.4,0.3,0.5,0.3l-0.2,0.3c-0.5-0.3-1-0.6-1.3-0.8
		c-0.3-0.2-0.6-0.5-1-0.9C211.9,94.1,211.7,93.7,211.5,93.3z"/>
	<path fill="#23221F" d="M213.8,103.5c-0.3-1.9,0.1-3.6,1.2-5.1c1.1-1.5,2.6-2.4,4.6-2.8c2-0.3,3.8,0,5.3,1.1
		c1.6,1.1,2.5,2.5,2.8,4.4c0.3,1.9-0.1,3.5-1.2,5c-1.1,1.5-2.6,2.4-4.6,2.7c-2,0.3-3.8,0-5.4-1.1
		C215.1,106.8,214.1,105.3,213.8,103.5z M214.3,103.4c0.2,1.3,1,2.3,2.4,3c1.4,0.7,3,0.9,4.8,0.6c2.5-0.4,4.1-1.3,5.1-2.6
		c0.7-1,1-2.1,0.8-3.3c-0.2-1.4-1-2.4-2.4-3.1c-1.4-0.7-2.9-0.9-4.7-0.6c-2.5,0.4-4.3,1.4-5.3,2.8
		C214.3,101.1,214.1,102.2,214.3,103.4z"/>
	<path fill="#23221F" d="M215.2,119.6c0-1.1,0.5-2,1.3-2.6c0.9-0.6,1.9-0.9,3.2-0.9c2.4,0,4.6,0.8,6.7,2.3c2,1.5,3,3.1,3,4.9
		c0,0.8-0.2,1.5-0.7,2.1c-0.4,0.5-0.9,0.8-1.5,0.8c-1,0-1.7-0.6-2.4-1.7c-0.6-1.2-1.4-3.3-2.3-6.3c-0.8-0.2-1.6-0.4-2.4-0.4
		c-1.2,0-2.1,0.2-2.8,0.7c-0.7,0.5-1,1.1-1.1,1.9c0,1.3,1,2.7,3,4.1l-0.3,0.3C216.4,122.9,215.1,121.2,215.2,119.6z M223,118.2
		c0.6,2.4,1.3,4.1,1.8,4.9c0.6,0.9,1.4,1.3,2.3,1.3c0.5,0,0.8-0.1,1.2-0.4c0.3-0.3,0.5-0.7,0.5-1.2c0-0.6-0.4-1.3-1.1-2.2
		C226.7,119.7,225.1,118.8,223,118.2C223,118.2,223,118.2,223,118.2z"/>
	<path fill="#23221F" d="M215,125.8c0.1-0.4,0.2-0.8,0.6-1.1c0.3-0.3,0.7-0.4,1.1-0.4c0.4,0,0.7,0.2,0.9,0.4
		c0.2,0.2,0.3,0.5,0.3,0.8c0,0.3-0.2,0.5-0.6,0.7c-0.3,0.1-0.6,0-0.9-0.2c-0.1,0-0.2,0.1-0.3,0.2c-0.1,0.2-0.2,0.4-0.2,0.5
		c0,0.4,0.5,1.1,1.7,2.1c1.2,1,2.4,1.8,3.7,2.5c1.4,0,2.7-0.2,4.2-0.4c1.4-0.2,2.1-0.5,2.2-0.8l0.1-0.7l-2.5-1.9l0.3-0.3
		c1,0.6,1.8,1.2,2.4,1.8c0.6,0.6,0.9,1.1,0.9,1.4c0,0.4-0.2,0.7-0.5,0.9c-0.3,0.3-0.8,0.5-1.4,0.6s-1.3,0.3-1.8,0.3
		c-0.6,0.1-1.4,0.1-2.5,0.2l0,0.1c2.2,1.3,3.7,2.3,4.4,3c0.7,0.7,1.1,1.5,1,2.3c-0.1,0.5-0.2,0.8-0.6,1.1c-0.3,0.3-0.7,0.4-1.1,0.3
		c-0.3,0-0.6-0.2-0.9-0.4c-0.2-0.2-0.3-0.5-0.3-0.8c0-0.3,0.2-0.6,0.6-0.7c0.3-0.1,0.6,0,0.9,0.2c0.1,0,0.2-0.1,0.3-0.2
		c0.1-0.2,0.2-0.3,0.2-0.5c0.1-0.4-0.5-1.1-1.5-2c-1.1-0.9-2.2-1.6-3.5-2.3c-1.5,0.1-3,0.2-4.5,0.4c-1.5,0.2-2.2,0.5-2.3,0.8
		l-0.1,0.7l2.4,1.9l-0.3,0.3c-1-0.6-1.8-1.2-2.4-1.8c-0.6-0.6-0.9-1.1-0.9-1.4c0.1-0.7,0.7-1.3,1.8-1.5c1.1-0.3,2.7-0.5,4.8-0.6
		l0-0.1c-2.3-1.4-3.9-2.5-4.6-3.2C215.3,127.4,214.9,126.6,215,125.8z"/>
	<path fill="#23221F" d="M207.4,132.2l0.4,0.2l-0.2,1.1c-0.1,0.6-0.1,1,0.1,1.1l17.5,10.1l0.5-1.2l-2.6-3l0.3-0.2
		c1,0.9,1.8,1.8,2.4,2.7c0.5,0.9,0.7,1.6,0.6,2.1c-0.1,0.3-0.3,0.5-0.8,0.7c-0.4,0.2-0.8,0.2-1.2,0.1c-0.2-0.1-0.5-0.2-0.9-0.4
		c-0.4-0.2-0.9-0.5-1.4-0.8c-0.6-0.4-0.9-0.6-1-0.6l0,0.2c0.6,0.5,1.2,1,1.8,1.6c0.6,0.6,1.2,1.3,1.7,2.2s0.7,1.6,0.6,2.2
		c-0.2,0.8-0.8,1.4-1.7,1.6c-0.9,0.3-2,0.2-3.2-0.1c-1.5-0.4-2.9-1.1-4.2-2c-1.3-0.9-2.3-2.1-3-3.4c-0.7-1.3-0.9-2.6-0.6-3.8
		c0.3-1,1.1-1.7,2.6-2l0-0.1l-7.7-4.4c-0.2-0.1-0.4,0.3-0.6,1.1l-0.4,1.5l-0.4-0.1L207.4,132.2z M212.7,142.8
		c-0.2,0.7,0,1.5,0.6,2.4c0.7,1.1,1.7,2.1,3,3c1.4,0.9,2.7,1.5,4.1,1.9c0.9,0.2,1.8,0.3,2.4,0.1c0.7-0.2,1.1-0.5,1.2-1.1
		c0.4-1.4-2.1-4-7.3-7.6c-0.8-0.4-1.2-0.5-1.3-0.6c-0.6,0-1.1,0.2-1.7,0.5C213.2,141.8,212.8,142.2,212.7,142.8z"/>
	<path fill="#23221F" d="M209.8,151c0.1-0.3,0.4-0.6,0.8-0.9c0.4-0.3,0.7-0.4,0.9-0.3l15.6,11.3c0.3,0.3,0.6,0.3,0.6,0l1-2.3
		l0.3,0.2l-1.1,4.6l-16.8-12.5l-0.6,1.2l2.2,3.4l-0.3,0.2c-0.9-1-1.6-2-2.1-2.9C209.8,152.1,209.7,151.4,209.8,151z"/>
	<path fill="#23221F" d="M206.7,158.7c0.5-1.1,1.4-1.7,2.5-1.8c1.2-0.1,2.4,0.2,3.7,0.8c1.9,0.9,3.4,2.3,4.6,4.4
		c1.2,2,1.5,3.8,0.8,5.3c-0.5,1.1-1.4,1.7-2.6,1.8c-1.2,0.2-2.6-0.1-4-0.8c-1.9-0.9-3.4-2.3-4.5-4.3
		C206.2,162,206,160.3,206.7,158.7z M207.3,158.8c-0.4,0.9-0.3,1.9,0.3,3.1c0.6,1.2,1.5,2.4,2.6,3.4c1,0.9,2.2,1.7,3.4,2.3
		c2.3,1.1,3.7,0.9,4.3-0.4c0.4-0.8,0.2-1.9-0.5-3.1c-0.7-1.2-1.7-2.4-2.9-3.6c-1-0.9-2-1.6-3.1-2.1c-1-0.5-1.8-0.7-2.5-0.6
		C208,157.8,207.5,158.2,207.3,158.8z"/>
	<path fill="#23221F" d="M202.8,167.1l1-1.3l3.4,4l5.4,5.7l0.8-1l-1.5-3.7l0.4-0.1c0.7,1.2,1.2,2.3,1.5,3.3c0.3,1,0.2,1.7-0.1,2.2
		c-0.2,0.2-0.5,0.4-0.9,0.4c-0.5,0-0.9-0.1-1.2-0.3c-0.6-0.4-2.2-2.1-4.7-5l-0.1,0.1c2.2,3.7,3.3,5.9,3.5,6.8
		c0.4,0.8,0.6,1.4,0.6,1.7c0.1,0.4,0,0.8-0.3,1.2c-0.3,0.4-0.6,0.7-1.1,0.8c-0.5,0.1-0.9,0-1.3-0.2c-0.3-0.2-0.5-0.5-0.6-0.8
		c-0.1-0.3,0-0.6,0.1-0.9c0.2-0.4,0.5-0.5,0.9-0.5c0.4,0,0.7,0.4,0.9,0.9l0.7-0.5c0-0.3-0.4-1.4-1.2-3.1c-0.9-1.8-2-3.9-3.4-6.2
		L202.8,167.1z"/>
	<path fill="#23221F" d="M196,176.8c0.7-0.9,1.5-1.3,2.6-1.3c1.1,0,2.1,0.4,3.1,1.1c1.9,1.5,3.2,3.4,4,5.9c0.7,2.4,0.5,4.3-0.5,5.7
		c-0.5,0.7-1.1,1.1-1.7,1.3c-0.7,0.2-1.2,0.1-1.7-0.3c-0.8-0.6-1-1.5-0.9-2.8c0.2-1.3,0.8-3.4,1.9-6.4c-0.5-0.7-1.1-1.3-1.7-1.7
		c-0.9-0.7-1.8-1.1-2.7-1.1c-0.8,0-1.5,0.3-2,0.9c-0.8,1.1-0.8,2.8,0,5.1l-0.4,0.1C195,180.2,195,178.1,196,176.8z M203.1,180.4
		c-0.9,2.3-1.4,4-1.5,5.1c0,1,0.3,1.9,1.1,2.5c0.4,0.3,0.8,0.4,1.2,0.3c0.4,0,0.8-0.3,1.1-0.6c0.4-0.5,0.5-1.3,0.4-2.4
		C205.2,183.7,204.5,182.1,203.1,180.4C203.1,180.4,203.1,180.4,203.1,180.4z"/>
	<path fill="#23221F" d="M182.8,198.3c0.3-0.3,0.7-0.4,1.1-0.3c0.4,0.1,0.7,0.2,0.9,0.6c0.2,0.3,0.3,0.6,0.3,1c0,0.4-0.2,0.7-0.6,1
		c-0.3,0.2-0.7,0.3-1,0.3c-0.4-0.1-0.7-0.2-0.9-0.5c-0.2-0.3-0.4-0.7-0.3-1.1C182.3,198.9,182.5,198.6,182.8,198.3z"/>
	<path fill="#23221F" d="M159.4,206.3c1.3-0.6,2.5-0.9,3.7-0.9l1.8,3.1l-0.4,0.2l-1.3-1.4c-1.3-0.9-2.5-1-3.8-0.4
		c-0.9,0.4-1.5,1-1.9,1.7c-0.3,0.7-0.3,1.5,0,2.3c0.4,0.8,0.9,1.3,1.7,1.5c0.8,0.2,1.8,0.2,3,0c2.5-0.3,4.2,0.3,4.9,1.9
		c0.4,1,0.4,1.9,0,3c-0.5,1-1.2,1.8-2.3,2.3c-0.8,0.4-1.7,0.6-2.7,0.6l-0.8,0.7l-1.6-3.1l0.4-0.2l2.1,1.8c0.9,0.1,1.7,0.1,2.4-0.3
		c0.8-0.4,1.3-0.9,1.6-1.5c0.3-0.6,0.3-1.3-0.1-2c-0.3-0.7-0.8-1.1-1.5-1.3c-0.6-0.2-1.6-0.2-2.8-0.1c-0.7,0.1-1.2,0.1-1.6,0.1
		c-0.4,0-0.8,0-1.4-0.1c-0.6-0.1-1-0.3-1.4-0.6c-0.4-0.3-0.7-0.8-1-1.4c-0.5-1.1-0.5-2.1,0-3.2C157.2,207.8,158.1,206.9,159.4,206.3
		z"/>
	<path fill="#23221F" d="M148.1,210.7c1.6-0.5,3.2-0.3,4.7,0.5c1.5,0.9,2.6,2.2,3.2,4c0.6,2,0.5,3.9-0.3,5.6c-0.8,1.7-2.2,2.9-4,3.5
		c-1.2,0.4-2.3,0.4-3.2,0.2c-1-0.3-1.6-0.8-1.8-1.5c-0.1-0.4-0.1-0.7,0.1-1c0.2-0.3,0.4-0.5,0.7-0.6c0.4-0.1,0.7-0.1,1,0.1
		c0.3,0.2,0.5,0.5,0.5,1c0.1,0.3,0.1,0.5,0,0.7c-0.1,0.2-0.1,0.4-0.1,0.4c0.2,0.2,0.5,0.3,1.1,0.5c0.6,0.1,1.1,0.1,1.7-0.1
		c1.3-0.4,2.2-1.3,2.8-2.7c0.6-1.4,0.6-3,0.1-4.6c-0.5-1.7-1.5-3-2.7-3.8c-1.3-0.8-2.6-1.1-3.9-0.6c-1.7,0.5-2.8,1.8-3.4,3.7
		l-0.4-0.1C144.6,213.1,145.9,211.4,148.1,210.7z"/>
	<path fill="#23221F" d="M142.6,212.7l0,0.4l-1,0.3c-0.3,0.1-0.4,0.1-0.6,0.2c-0.1,0-0.2,0.1-0.3,0.1c-0.1,0.1-0.1,0.1-0.1,0.3
		l1.9,9.5c0.1,0.7,0.3,1.1,0.4,1.3c0.2,0.2,0.4,0.3,0.8,0.3l1.2-0.1v0.3l-3.6,1.6l-0.9-5l0,0c-0.6,3.6-1.6,5.6-3.2,5.9
		c-0.5,0.1-0.9,0-1.2-0.2c-0.3-0.2-0.5-0.5-0.6-0.9c-0.1-0.3,0-0.7,0.2-1c0.2-0.3,0.4-0.5,0.8-0.5c0.3-0.1,0.7,0,1,0.2
		c0.3,0.2,0.5,0.6,0.6,1c1.2-0.7,2-2.5,2.2-5.4l-1.3-6.8c0-0.1-0.1-0.2-0.2-0.2c-0.1,0-0.4,0-0.8,0.1l-1.5,0.2l-0.2-0.4L142.6,212.7
		z"/>
	<path fill="#23221F" d="M126.5,214.7c1.9-0.1,3.6,0.4,5,1.6c1.4,1.2,2.2,2.8,2.3,4.8c0.1,2-0.4,3.7-1.6,5.2
		c-1.2,1.5-2.8,2.3-4.7,2.4c-1.9,0.1-3.5-0.4-4.9-1.6c-1.4-1.2-2.2-2.8-2.3-4.8c-0.1-2,0.4-3.8,1.6-5.3
		C123.1,215.7,124.6,214.9,126.5,214.7z M126.5,215.2c-1.3,0.1-2.4,0.8-3.3,2.1c-0.8,1.3-1.2,2.9-1.1,4.7c0.2,2.5,0.9,4.2,2.1,5.3
		c0.9,0.8,2,1.2,3.2,1.1c1.4-0.1,2.5-0.8,3.3-2.1c0.8-1.3,1.2-2.8,1.1-4.6c-0.2-2.5-0.9-4.4-2.3-5.6
		C128.8,215.4,127.7,215.1,126.5,215.2z"/>
	<path fill="#23221F" d="M119.2,215.4l-0.1,0.4l-1,0c-0.3,0-0.5,0-0.6,0s-0.2,0-0.3,0.1c-0.1,0-0.1,0.1-0.1,0.2l-0.6,17.2
		c0,0.7,0,1.2,0.1,1.4c0.1,0.2,0.4,0.4,0.8,0.5l1.3,0.1l-0.1,0.3l-3.9,0.7l0.7-20.3c0-0.1-0.1-0.2-0.2-0.2c-0.1,0-0.4-0.1-0.9-0.1
		l-1-0.1l-0.1-0.4L119.2,215.4z"/>
	<path fill="#23221F" d="M112.7,215.2l-0.1,0.4l-1,0c-0.3,0-0.5,0-0.6,0c-0.1,0-0.2,0-0.3,0.1c-0.1,0-0.1,0.1-0.1,0.2l-1.7,17.1
		c-0.1,0.7-0.1,1.2,0,1.4c0.1,0.2,0.4,0.4,0.8,0.5l1.3,0.2l-0.1,0.3l-3.9,0.4l2.1-20.2c0-0.1,0-0.2-0.2-0.2c-0.1,0-0.4-0.1-0.9-0.2
		l-1-0.2l0-0.4L112.7,215.2z"/>
	<path fill="#23221F" d="M96.4,212.2c1.8,0.4,2.5,1.6,2,3.5l-2.4,9.5l2.3,0.6l-0.5,0.8l-2.1-0.4l-0.7,2.6l-1.5-0.4l0.7-2.6l-4.3-1
		l0.5-0.9l4,1c1.6-6.1,2.4-9.1,2.4-9.1c0.4-1.4-0.1-2.2-1.3-2.5c-0.2-0.1-0.4-0.1-0.6-0.1c-0.2,0-0.4,0-0.6,0.1
		c-0.2,0.1-0.4,0.1-0.5,0.1c-0.1,0-0.3,0.1-0.6,0.2c-0.3,0.1-0.5,0.2-0.5,0.2l-0.1-0.3c0.6-0.3,1-0.6,1.3-0.7
		c0.3-0.2,0.7-0.3,1.3-0.4C95.5,212.1,96,212.1,96.4,212.2z"/>
	<path fill="#23221F" d="M86.5,209.1c1.8,0.7,3.1,1.8,3.8,3.5c0.8,1.7,0.8,3.5,0.1,5.4c-0.7,1.9-1.9,3.2-3.6,4.1
		c-1.7,0.8-3.5,0.9-5.2,0.3c-1.8-0.7-3-1.8-3.8-3.5c-0.8-1.7-0.8-3.5-0.1-5.3c0.7-1.9,1.9-3.3,3.6-4.1
		C83,208.5,84.7,208.5,86.5,209.1z M86.3,209.5c-1.3-0.5-2.5-0.3-3.8,0.6c-1.3,0.9-2.3,2.1-2.9,3.8c-0.9,2.3-1,4.2-0.3,5.7
		c0.5,1.1,1.3,1.9,2.5,2.3c1.3,0.5,2.6,0.3,3.9-0.5c1.3-0.8,2.3-2.1,2.9-3.7c0.9-2.4,0.9-4.4,0.2-6
		C88.3,210.6,87.4,209.9,86.3,209.5z"/>
	<path fill="#23221F" d="M71.8,202.2c0.9,0.6,1.5,1.4,1.6,2.4c0.1,1.1-0.1,2.1-0.8,3.2c-1.2,2.1-3,3.6-5.3,4.6
		c-2.3,1-4.2,1.1-5.7,0.2c-0.7-0.4-1.2-1-1.5-1.6c-0.3-0.6-0.2-1.2,0-1.7c0.5-0.8,1.4-1.2,2.7-1.2c1.3,0,3.5,0.4,6.6,1.1
		c0.6-0.6,1.1-1.2,1.5-1.9c0.6-1,0.9-1.9,0.8-2.8c-0.1-0.8-0.5-1.5-1.1-1.8c-1.2-0.7-2.8-0.5-5.1,0.6l-0.1-0.4
		C68.2,201.7,70.3,201.4,71.8,202.2z M69,209.7c-2.4-0.6-4.2-0.9-5.2-0.8c-1,0.1-1.8,0.5-2.3,1.4c-0.2,0.4-0.3,0.8-0.2,1.2
		c0.1,0.4,0.3,0.8,0.8,1c0.5,0.3,1.3,0.3,2.4,0.1C66,212.2,67.5,211.2,69,209.7C69.1,209.7,69.1,209.7,69,209.7z"/>
	<path fill="#23221F" d="M66.5,199c0.3,0.3,0.6,0.6,0.7,1c0.1,0.4,0,0.8-0.2,1.1c-0.2,0.3-0.5,0.5-0.8,0.6c-0.3,0.1-0.6,0-0.8-0.2
		c-0.3-0.2-0.4-0.5-0.3-0.8c0.1-0.3,0.3-0.6,0.6-0.7c0.1-0.1,0-0.2-0.1-0.4c-0.1-0.2-0.2-0.3-0.4-0.4c-0.3-0.2-1.2-0.1-2.7,0.5
		c-1.5,0.6-2.8,1.2-4,1.9c-0.6,1.2-1.2,2.5-1.7,3.8c-0.5,1.3-0.6,2.1-0.4,2.3l0.6,0.4l2.9-1.2l0.1,0.4c-1,0.6-1.9,0.9-2.8,1.2
		c-0.8,0.2-1.4,0.2-1.7,0c-0.3-0.2-0.5-0.5-0.6-0.9c-0.1-0.4,0-0.9,0.2-1.5c0.2-0.6,0.4-1.2,0.6-1.8c0.2-0.5,0.6-1.3,1-2.2l-0.1,0
		c-2.3,1.2-3.9,2-4.8,2.3c-1,0.3-1.8,0.2-2.5-0.3c-0.4-0.3-0.6-0.6-0.7-1c-0.1-0.4,0-0.8,0.3-1.1c0.2-0.3,0.5-0.5,0.8-0.5
		c0.3-0.1,0.6,0,0.8,0.2c0.3,0.2,0.4,0.5,0.3,0.8c-0.1,0.3-0.3,0.6-0.6,0.7c0,0.1,0,0.2,0.1,0.4c0.1,0.2,0.2,0.3,0.4,0.4
		c0.3,0.3,1.2,0.1,2.5-0.3c1.3-0.5,2.5-1.1,3.7-1.8c0.7-1.3,1.3-2.7,1.9-4.1c0.6-1.4,0.7-2.2,0.5-2.4l-0.6-0.4l-2.9,1.1l-0.1-0.4
		c1-0.6,1.9-0.9,2.8-1.2c0.9-0.2,1.4-0.2,1.7,0c0.6,0.5,0.7,1.2,0.4,2.3c-0.3,1.1-0.9,2.6-1.9,4.5l0.1,0c2.4-1.3,4.1-2.1,5.1-2.4
		C64.9,198.4,65.8,198.5,66.5,199z"/>
	<path fill="#23221F" d="M64.8,189.2l-0.4,0.2l-0.9-0.8c-0.5-0.4-0.8-0.6-1-0.5l-17.5,10.1l0.8,1l3.9-0.7l0,0.4
		c-1.3,0.5-2.5,0.7-3.5,0.7c-1,0-1.7-0.1-2.1-0.5c-0.2-0.2-0.3-0.5-0.2-1c0.1-0.5,0.2-0.8,0.5-1.1c0.1-0.1,0.4-0.3,0.8-0.6
		c0.4-0.2,0.9-0.5,1.4-0.8c0.6-0.3,0.9-0.5,1.1-0.6l-0.1-0.1c-0.7,0.3-1.5,0.5-2.3,0.7c-0.8,0.2-1.7,0.3-2.8,0.3
		c-1,0-1.7-0.2-2.2-0.6c-0.6-0.6-0.8-1.3-0.6-2.3c0.2-0.9,0.8-1.8,1.7-2.8c1.1-1.1,2.3-2,3.8-2.6c1.5-0.7,3-1,4.4-0.9
		c1.5,0,2.7,0.5,3.6,1.4c0.8,0.8,0.9,1.8,0.4,3.2l0,0l7.7-4.5c0.2-0.1,0-0.5-0.6-1.1l-1-1.1l0.3-0.3L64.8,189.2z M53,188.5
		c-0.5-0.5-1.3-0.7-2.4-0.7c-1.3,0-2.7,0.4-4.1,1.1c-1.5,0.7-2.7,1.6-3.7,2.6c-0.7,0.7-1.1,1.4-1.3,2c-0.2,0.7-0.1,1.2,0.3,1.6
		c1.1,1,4.5,0.2,10.3-2.5c0.7-0.5,1.1-0.8,1.1-0.8c0.3-0.5,0.4-1.1,0.4-1.8C53.6,189.5,53.4,188.9,53,188.5z"/>
	<path fill="#23221F" d="M47.2,181.9c0.2,0.2,0.3,0.6,0.4,1.1c0.1,0.5,0,0.8-0.2,0.9l-17.5,7.9c-0.4,0.2-0.5,0.4-0.4,0.5l1.5,2
		l-0.3,0.2l-3.4-3.2l19.2-8.4l-0.7-1.1l-4,0.2l0-0.4c1.4-0.3,2.6-0.4,3.6-0.4C46.3,181.4,46.9,181.6,47.2,181.9z"/>
	<path fill="#23221F" d="M42,175.4c0.7,1,0.8,2.1,0.3,3.1c-0.5,1.1-1.3,2-2.5,2.8c-1.7,1.2-3.7,1.8-6.1,1.8c-2.4,0-4-0.6-4.9-1.9
		c-0.7-1-0.8-2-0.3-3.2c0.5-1.1,1.4-2.2,2.7-3.1c1.7-1.2,3.7-1.8,6-1.8C39.4,173.3,41.1,174,42,175.4z M41.7,175.8
		c-0.5-0.8-1.5-1.2-2.8-1.3c-1.3-0.1-2.8,0.1-4.3,0.6c-1.3,0.4-2.6,1-3.7,1.8c-2,1.4-2.6,2.7-1.8,3.9c0.5,0.7,1.5,1.1,2.9,1.1
		c1.4,0,3-0.3,4.6-0.8c1.3-0.4,2.4-1,3.4-1.6c0.9-0.6,1.5-1.2,1.8-1.9C42.1,176.9,42.1,176.3,41.7,175.8z"/>
	<path fill="#23221F" d="M36.7,167.8l0.6,1.5l-5.1,0.9l-7.6,1.9l0.5,1.2l3.9,0.5l-0.1,0.4c-1.4,0-2.6-0.1-3.6-0.3
		c-1-0.3-1.6-0.6-1.8-1.1c-0.1-0.3-0.1-0.6,0.1-1c0.2-0.4,0.5-0.7,0.8-0.9c0.6-0.3,2.9-0.9,6.7-1.6l-0.1-0.1c-4.3,0-6.8-0.1-7.7-0.3
		c-0.9-0.1-1.5-0.2-1.8-0.3c-0.4-0.1-0.6-0.4-0.9-0.8c-0.2-0.4-0.3-0.9-0.1-1.3c0.2-0.5,0.4-0.8,0.8-1c0.3-0.2,0.7-0.2,1-0.1
		s0.6,0.3,0.7,0.6c0.2,0.4,0.2,0.7-0.1,1c-0.2,0.3-0.7,0.4-1.3,0.3l0.1,0.9c0.2,0.2,1.4,0.4,3.3,0.5c2,0.1,4.3,0.2,7.1,0.2
		L36.7,167.8z"/>
	<path fill="#23221F" d="M31.7,157c0.4,1,0.4,2-0.2,2.9c-0.5,0.9-1.4,1.6-2.5,2.1c-2.2,0.9-4.6,1.1-7,0.5c-2.5-0.6-4-1.7-4.7-3.3
		c-0.3-0.8-0.4-1.5-0.2-2.1c0.2-0.7,0.5-1.1,1.1-1.3c0.9-0.4,1.8-0.2,2.9,0.6c1,0.8,2.6,2.4,4.6,4.9c0.9-0.1,1.6-0.3,2.3-0.6
		c1.1-0.5,1.9-1,2.3-1.8c0.4-0.7,0.5-1.4,0.2-2.1c-0.5-1.2-2-2.1-4.4-2.5l0.1-0.4C29.2,154.5,31,155.5,31.7,157z M25,161.4
		c-1.6-2-2.8-3.2-3.7-3.8c-0.9-0.6-1.8-0.6-2.7-0.3c-0.4,0.2-0.7,0.5-0.9,0.9c-0.2,0.4-0.2,0.8,0,1.3c0.2,0.6,0.9,1.1,1.9,1.5
		C21.1,161.6,22.8,161.7,25,161.4C25,161.4,25,161.4,25,161.4z"/>
	<path fill="#23221F" d="M19.6,135c0.1,0.4,0,0.8-0.3,1.1c-0.2,0.3-0.6,0.5-1,0.5c-0.3,0.1-0.7,0-1-0.3c-0.3-0.2-0.5-0.6-0.6-1
		c-0.1-0.4,0-0.7,0.3-1c0.2-0.3,0.5-0.5,0.9-0.5c0.4-0.1,0.7,0,1.1,0.2C19.3,134.3,19.5,134.6,19.6,135z"/>
	<path fill="#23221F" d="M24.4,110.7c-0.1,1.4-0.5,2.7-1,3.7l-3.6,0l0-0.4l1.9-0.4c1.4-0.7,2.1-1.7,2.3-3.1c0.1-1-0.1-1.8-0.6-2.5
		c-0.5-0.7-1.1-1-2-1.1c-0.9-0.1-1.6,0.2-2.1,0.7c-0.5,0.6-1.1,1.4-1.5,2.6c-1,2.4-2.3,3.5-4.1,3.3c-1.1-0.1-1.9-0.6-2.6-1.5
		c-0.7-0.9-0.9-1.9-0.8-3.1c0.1-0.9,0.4-1.8,0.8-2.6l-0.2-1l3.5,0.1l0,0.5l-2.6,0.9c-0.6,0.7-0.9,1.4-1,2.3
		c-0.1,0.9,0.1,1.6,0.5,2.1c0.4,0.5,1,0.9,1.7,0.9c0.8,0.1,1.4-0.1,1.9-0.6c0.5-0.5,0.9-1.3,1.4-2.4c0.3-0.6,0.5-1.1,0.7-1.4
		c0.2-0.3,0.5-0.7,0.8-1.2c0.4-0.4,0.8-0.7,1.3-0.9c0.5-0.2,1-0.2,1.7-0.2c1.2,0.1,2.1,0.7,2.8,1.7C24.2,108,24.5,109.2,24.4,110.7z
		"/>
	<path fill="#23221F" d="M26.2,98.6c-0.4,1.7-1.3,2.9-2.8,3.8c-1.5,0.9-3.2,1.2-5.1,0.7c-2-0.4-3.6-1.5-4.7-3
		c-1.1-1.6-1.4-3.3-1-5.2c0.3-1.2,0.7-2.2,1.4-2.9c0.7-0.7,1.4-1,2.2-0.8c0.4,0.1,0.7,0.3,0.9,0.6s0.3,0.6,0.2,0.9
		c-0.1,0.4-0.3,0.7-0.6,0.9c-0.3,0.2-0.7,0.2-1.1,0c-0.3-0.1-0.5-0.2-0.6-0.4c-0.2-0.2-0.3-0.3-0.3-0.3c-0.2,0-0.5,0.3-0.9,0.7
		c-0.4,0.4-0.6,0.9-0.8,1.5c-0.3,1.3,0,2.6,1,3.8c0.9,1.2,2.3,2,3.9,2.4c1.8,0.4,3.3,0.2,4.7-0.4c1.4-0.7,2.2-1.7,2.5-3.1
		c0.4-1.8-0.1-3.4-1.6-4.8l0.3-0.3C25.9,94.4,26.7,96.4,26.2,98.6z"/>
	<path fill="#23221F" d="M27.2,92.8l-0.4-0.2l0.3-1c0.1-0.3,0.1-0.4,0.1-0.6c0-0.1,0-0.2,0-0.3c0-0.1-0.1-0.1-0.2-0.2l-9.2-3.1
		c-0.6-0.2-1.1-0.3-1.4-0.3c-0.3,0-0.5,0.2-0.6,0.6l-0.5,1.1L15,88.7l0.4-3.9l4.8,1.7l0,0c-2.9-2.3-4-4.2-3.5-5.7
		c0.2-0.5,0.4-0.8,0.8-1c0.4-0.2,0.7-0.2,1.1-0.1c0.3,0.1,0.6,0.3,0.8,0.6c0.2,0.3,0.2,0.6,0.1,0.9c-0.1,0.3-0.3,0.6-0.7,0.7
		c-0.3,0.1-0.7,0.2-1.2,0.1c0,1.4,1.1,2.9,3.5,4.6l6.6,2.2c0.1,0,0.2,0,0.3-0.1c0.1-0.1,0.2-0.3,0.3-0.8l0.5-1.4l0.4,0.1L27.2,92.8z
		"/>
	<path fill="#23221F" d="M33.4,77.9c-0.8,1.7-2.1,2.9-3.9,3.5C27.8,82,26,81.9,24.2,81c-1.8-0.9-3-2.2-3.7-4s-0.6-3.5,0.2-5.3
		c0.8-1.7,2.1-2.8,3.9-3.4c1.8-0.6,3.5-0.5,5.3,0.4c1.8,0.9,3.1,2.2,3.8,4C34.3,74.5,34.2,76.2,33.4,77.9z M33,77.7
		c0.6-1.2,0.5-2.5-0.2-3.9c-0.7-1.4-1.9-2.5-3.5-3.2c-2.2-1.1-4.1-1.4-5.6-0.8c-1.2,0.4-2,1.1-2.6,2.2c-0.6,1.3-0.6,2.6,0.1,3.9
		s1.8,2.4,3.5,3.2c2.3,1.1,4.3,1.4,6,0.8C31.7,79.6,32.5,78.8,33,77.7z"/>
	<path fill="#23221F" d="M36.4,71.3L36.1,71l0.5-0.9c0.1-0.2,0.2-0.4,0.3-0.5c0.1-0.1,0.1-0.2,0.1-0.3c0-0.1-0.1-0.2-0.1-0.2
		L22.2,60c-0.6-0.4-1.1-0.6-1.3-0.6c-0.3,0-0.5,0.1-0.8,0.5l-0.8,1.1l-0.2-0.2l1.4-3.7l17.3,10.7c0.1,0.1,0.2,0.1,0.3,0
		c0.1-0.1,0.3-0.3,0.6-0.8l0.6-0.8l0.4,0.2L36.4,71.3z"/>
	<path fill="#23221F" d="M39.9,65.7l-0.3-0.3l0.5-0.9c0.1-0.2,0.2-0.4,0.3-0.5c0.1-0.1,0.1-0.2,0.1-0.3c0-0.1,0-0.2-0.1-0.2
		L26.5,53.4c-0.6-0.4-1-0.7-1.3-0.7c-0.3,0-0.5,0.1-0.8,0.4l-0.8,1l-0.2-0.2l1.6-3.6l16.5,11.9c0.1,0.1,0.2,0.1,0.3,0
		c0.1-0.1,0.3-0.3,0.6-0.7l0.6-0.8l0.4,0.2L39.9,65.7z"/>
	<path fill="#23221F" d="M50.6,53.1c-1.3,1.4-2.6,1.4-4,0l-7-6.8L38,48l-0.5-0.8l1.4-1.6l-1.9-1.9l1.1-1.1l1.9,1.9l3-3.2l0.6,0.9
		l-2.8,3c4.5,4.4,6.7,6.6,6.7,6.6c1,1,1.9,1.1,2.9,0.1c0.2-0.2,0.3-0.3,0.4-0.5c0.1-0.2,0.2-0.4,0.2-0.6c0.1-0.2,0.1-0.4,0.2-0.5
		c0-0.1,0.1-0.3,0.1-0.6c0-0.3,0.1-0.5,0.1-0.6l0.4,0c0,0.6,0,1.2,0,1.5s-0.1,0.8-0.3,1.3C51.2,52.4,51,52.8,50.6,53.1z"/>
	<path fill="#23221F" d="M58.3,46c-1.5,1.2-3.1,1.7-5,1.6c-1.9-0.2-3.4-1-4.7-2.6c-1.3-1.5-1.9-3.3-1.7-5.2c0.1-1.9,0.9-3.5,2.4-4.7
		c1.4-1.2,3.1-1.7,4.9-1.5c1.8,0.2,3.4,1,4.7,2.6c1.3,1.6,1.9,3.3,1.8,5.2C60.5,43.3,59.7,44.8,58.3,46z M58,45.7
		c1-0.9,1.5-2.1,1.4-3.6c-0.1-1.6-0.7-3-1.9-4.4c-1.6-1.9-3.2-2.9-4.8-3.1c-1.2-0.1-2.3,0.2-3.3,1c-1.1,0.9-1.6,2.1-1.5,3.6
		c0.1,1.5,0.7,3,1.8,4.4c1.6,2,3.3,3,5.1,3.2C56,46.8,57.1,46.5,58,45.7z"/>
	<path fill="#23221F" d="M71.6,36.7c-1,0.5-1.9,0.6-2.9,0.2c-1-0.4-1.8-1.2-2.4-2.3c-1.2-2.1-1.7-4.4-1.4-6.9c0.3-2.5,1.2-4.2,2.7-5
		c0.7-0.4,1.4-0.6,2.1-0.5c0.7,0.1,1.2,0.4,1.5,0.9c0.5,0.8,0.4,1.8-0.3,2.9c-0.7,1.1-2.1,2.9-4.3,5.2c0.2,0.9,0.5,1.6,0.9,2.2
		c0.6,1,1.3,1.7,2,2.1c0.8,0.3,1.5,0.3,2.2,0c1.2-0.7,1.8-2.2,2-4.7l0.4,0.1C73.8,33.9,73,35.9,71.6,36.7z M66.4,30.6
		c1.8-1.8,2.9-3.2,3.3-4.1c0.4-0.9,0.4-1.8-0.1-2.7c-0.2-0.4-0.5-0.7-1-0.8c-0.4-0.1-0.8-0.1-1.3,0.2c-0.5,0.3-1,1-1.3,2.1
		C65.8,26.7,65.8,28.5,66.4,30.6C66.4,30.6,66.4,30.6,66.4,30.6z"/>
	<path fill="#23221F" d="M77,33.7c-0.4,0.2-0.8,0.2-1.2,0.1c-0.4-0.1-0.7-0.4-0.9-0.7c-0.1-0.3-0.2-0.7-0.1-1
		c0.1-0.3,0.3-0.5,0.6-0.6c0.3-0.1,0.6-0.1,0.8,0.2c0.3,0.2,0.4,0.5,0.3,0.9c0,0.1,0.2,0.1,0.3,0.1c0.2,0,0.4,0,0.6-0.1
		c0.4-0.2,0.7-1,0.9-2.6c0.2-1.5,0.3-3,0.3-4.4c-0.7-1.2-1.5-2.3-2.4-3.4c-0.9-1.1-1.5-1.6-1.8-1.5l-0.7,0.3L73.3,24l-0.4-0.1
		c0-1.2,0.1-2.2,0.4-3c0.2-0.8,0.5-1.3,0.8-1.5c0.3-0.1,0.7-0.2,1.1,0c0.4,0.1,0.8,0.4,1.3,0.9c0.5,0.5,0.9,1,1.2,1.4
		c0.3,0.5,0.8,1.1,1.4,2l0.1,0c0-2.6,0.2-4.3,0.4-5.3c0.2-1,0.7-1.6,1.5-2c0.4-0.2,0.8-0.2,1.2-0.1c0.4,0.1,0.7,0.4,0.9,0.8
		c0.1,0.3,0.2,0.6,0.1,1c-0.1,0.3-0.3,0.5-0.5,0.6c-0.3,0.1-0.6,0.1-0.9-0.1c-0.3-0.2-0.3-0.5-0.3-0.9c0-0.1-0.1-0.1-0.3-0.1
		c-0.2,0-0.4,0-0.5,0.1c-0.4,0.2-0.7,0.9-0.9,2.3c-0.2,1.4-0.3,2.8-0.3,4.2c0.8,1.3,1.7,2.5,2.6,3.6c0.9,1.2,1.5,1.7,1.8,1.6
		l0.6-0.3l0.5-3l0.4,0.1c0,1.2-0.1,2.2-0.4,3c-0.2,0.8-0.5,1.3-0.8,1.5c-0.7,0.3-1.4,0-2.2-0.8c-0.8-0.8-1.8-2.1-3-3.8L79,26
		c-0.1,2.7-0.2,4.6-0.5,5.6C78.3,32.7,77.8,33.4,77,33.7z"/>
	<path fill="#23221F" d="M86.3,37.1l0-0.4l1.1-0.4c0.6-0.2,0.9-0.4,0.9-0.6l-0.1-20.2l-1.3,0.2l-1.3,3.7l-0.3-0.2
		c0.3-1.4,0.6-2.5,1.1-3.4c0.5-0.9,1-1.4,1.5-1.6c0.3-0.1,0.6,0,1,0.3c0.4,0.3,0.6,0.6,0.7,1c0.1,0.2,0.1,0.5,0.1,1c0,0.4,0,1,0,1.7
		c0,0.7,0,1.1,0,1.2l0.2,0c0.1-0.8,0.3-1.6,0.5-2.4c0.2-0.8,0.6-1.7,1.1-2.6c0.5-0.9,1-1.4,1.6-1.6c0.8-0.2,1.6,0,2.2,0.6
		c0.7,0.6,1.2,1.6,1.5,2.9c0.4,1.5,0.5,3,0.4,4.6c-0.2,1.6-0.6,3-1.4,4.3c-0.8,1.3-1.8,2.1-3,2.4c-1,0.3-2-0.1-3-1.2l-0.1,0l0,8.9
		c0,0.2,0.4,0.2,1.3,0l1.5-0.4l0.1,0.4L86.3,37.1z M92.7,27.2c0.7-0.2,1.3-0.8,1.8-1.7c0.6-1.1,1-2.5,1.1-4.1
		c0.1-1.6-0.1-3.1-0.4-4.5c-0.3-0.9-0.6-1.7-1.1-2.2c-0.5-0.5-1-0.7-1.5-0.5c-1.4,0.4-2.4,3.8-2.9,10.2c0.1,0.9,0.2,1.3,0.2,1.4
		c0.3,0.5,0.7,0.9,1.3,1.3C91.6,27.3,92.2,27.4,92.7,27.2z"/>
	<path fill="#23221F" d="M101.3,25.5c-0.3,0.1-0.7,0-1.2-0.2c-0.5-0.2-0.7-0.4-0.7-0.6l1.9-19.1c0-0.4,0-0.6-0.3-0.6l-2.5,0.3l0-0.4
		l4.5-1.4l-2.3,20.8l1.3-0.1l1.8-3.6l0.3,0.2c-0.4,1.3-0.9,2.4-1.4,3.3C102.2,25,101.7,25.5,101.3,25.5z"/>
	<path fill="#23221F" d="M109.6,24.3c-1.2,0.1-2.2-0.3-2.9-1.3c-0.7-1-1.1-2.2-1.2-3.6c-0.2-2.1,0.3-4.1,1.5-6.2
		c1.1-2.1,2.5-3.2,4.1-3.3c1.2-0.1,2.1,0.3,2.9,1.3c0.8,1,1.2,2.3,1.3,3.8c0.2,2.1-0.3,4.1-1.5,6.1
		C112.7,23.1,111.3,24.2,109.6,24.3z M109.4,23.8c0.9-0.1,1.8-0.7,2.6-1.8c0.8-1.1,1.3-2.4,1.6-4c0.3-1.4,0.4-2.7,0.3-4.1
		c-0.2-2.5-1-3.7-2.5-3.5c-0.9,0.1-1.7,0.7-2.4,2s-1.3,2.7-1.6,4.4c-0.3,1.3-0.4,2.6-0.3,3.7c0.1,1.1,0.3,1.9,0.7,2.5
		C108.2,23.6,108.7,23.9,109.4,23.8z"/>
	<path fill="#23221F" d="M118.8,23.4l-1.6-0.2l1.7-4.9l2.2-7.5l-1.3-0.2l-2.4,3.2l-0.3-0.3c0.7-1.3,1.4-2.3,2.1-3
		c0.7-0.7,1.3-1.1,1.9-1c0.3,0,0.6,0.2,0.8,0.6c0.3,0.4,0.4,0.8,0.4,1.2c0,0.7-0.7,2.9-2,6.6l0.2,0c2.1-3.7,3.4-5.9,4.1-6.5
		c0.5-0.7,0.9-1.2,1.2-1.4c0.3-0.2,0.7-0.4,1.2-0.3c0.5,0,0.9,0.2,1.2,0.6c0.3,0.4,0.5,0.8,0.5,1.2c0,0.4-0.1,0.7-0.4,0.9
		c-0.2,0.2-0.5,0.3-0.9,0.3c-0.4,0-0.7-0.2-0.9-0.6c-0.2-0.4,0-0.8,0.4-1.2l-0.8-0.4c-0.3,0.1-1,1-2.1,2.6c-1.1,1.6-2.3,3.7-3.7,6
		L118.8,23.4z"/>
	<path fill="#23221F" d="M130.7,24.4c-1.1-0.1-1.9-0.7-2.4-1.6c-0.5-0.9-0.7-2-0.6-3.3c0.3-2.4,1.3-4.5,3.1-6.4
		c1.7-1.8,3.5-2.7,5.2-2.4c0.8,0.1,1.5,0.4,2,0.9c0.5,0.5,0.7,1,0.6,1.6c-0.1,0.9-0.8,1.7-2,2.2c-1.2,0.5-3.4,1-6.5,1.6
		c-0.3,0.8-0.5,1.6-0.6,2.3c-0.1,1.2,0,2.1,0.4,2.9c0.4,0.7,1,1.2,1.8,1.3c1.3,0.2,2.8-0.7,4.4-2.6l0.3,0.3
		C134.2,23.5,132.3,24.7,130.7,24.4z M130.2,16.5c2.5-0.4,4.2-0.8,5.1-1.3c0.9-0.5,1.4-1.2,1.6-2.2c0.1-0.5,0-0.9-0.3-1.2
		c-0.3-0.4-0.6-0.6-1.1-0.6c-0.6-0.1-1.4,0.2-2.3,0.9C132,13,131,14.5,130.2,16.5C130.2,16.5,130.2,16.5,130.2,16.5z"/>
	<path fill="#23221F" d="M155.9,24.9c-0.4-0.1-0.7-0.4-0.8-0.8c-0.2-0.4-0.2-0.7,0-1.1c0.1-0.3,0.4-0.6,0.7-0.7
		c0.4-0.2,0.7-0.2,1.1,0c0.4,0.1,0.6,0.4,0.8,0.8c0.1,0.4,0.2,0.7,0,1c-0.1,0.4-0.4,0.6-0.7,0.8C156.6,25.1,156.2,25.1,155.9,24.9z"
		/>
</g>
</svg>
